<svg width="714" height="501" viewBox="0 0 714 501" fill="none" xmlns="http://www.w3.org/2000/svg">
<g filter="url(#filter0_d_301_7362)">
<ellipse cx="193.443" cy="193.5" rx="193.443" ry="193.5" transform="matrix(-0.99863 0.052336 0.707107 0.707107 395.106 117.765)" fill="url(#paint0_linear_301_7362)" shape-rendering="crispEdges"/>
</g>
<path d="M532.249 321.704C539.789 329.526 555.099 335.633 565.421 334.389C585.904 331.921 603.143 326.693 616.247 318.92C633.328 308.788 642.899 294.619 644.178 277.571C645.456 260.523 638.406 241.081 623.604 220.834C608.801 200.587 586.667 180.11 559.011 161.077C531.354 142.045 498.96 124.997 464.478 111.327C429.996 97.6574 394.405 87.7544 360.614 82.4278C326.823 77.1011 295.792 76.502 270.058 80.6795C250.314 83.8846 234.118 89.8318 222.198 98.1947C216.194 102.408 222.837 111.407 235.527 117.507L282.406 140.041C295.101 146.143 308.966 146.959 316.012 143.34C321.885 140.324 329.062 138.103 337.369 136.754C351.678 134.431 368.932 134.765 387.72 137.726C406.509 140.688 426.298 146.194 445.471 153.795C464.644 161.396 482.656 170.875 498.033 181.457C513.411 192.04 525.718 203.426 533.949 214.683C542.179 225.941 546.099 236.751 545.388 246.23C544.677 255.709 539.355 263.588 529.858 269.221C524.343 272.493 517.512 274.953 509.578 276.551C500.06 278.468 496.856 284.986 504.396 292.808L532.249 321.704Z" fill="#2F82FF" fill-opacity="0.6"/>
<path d="M522.249 340.704C529.789 348.526 545.099 354.633 555.421 353.389C575.904 350.921 593.143 345.693 606.247 337.92C623.328 327.788 632.899 313.619 634.178 296.571C635.456 279.523 628.406 260.081 613.604 239.834C598.801 219.587 576.667 199.11 549.011 180.077C521.354 161.045 488.96 143.997 454.478 130.327C419.996 116.657 384.405 106.754 350.614 101.428C316.823 96.1011 285.792 95.502 260.058 99.6795C240.314 102.885 224.118 108.832 212.198 117.195C206.194 121.408 212.837 130.407 225.527 136.507L272.406 159.041C285.101 165.143 298.966 165.959 306.012 162.34C311.885 159.324 319.062 157.103 327.369 155.754C341.678 153.431 358.932 153.765 377.72 156.726C396.509 159.688 416.298 165.194 435.471 172.795C454.644 180.396 472.656 189.875 488.033 200.457C503.411 211.04 515.718 222.426 523.949 233.683C532.179 244.941 536.099 255.751 535.388 265.23C534.677 274.709 529.355 282.588 519.858 288.221C514.343 291.493 507.512 293.953 499.578 295.551C490.06 297.468 486.856 303.986 494.396 311.808L522.249 340.704Z" fill="#2F82FF" fill-opacity="0.3"/>
<path d="M512.249 360.704C519.789 368.526 535.099 374.633 545.421 373.389C565.904 370.921 583.143 365.693 596.247 357.92C613.328 347.788 622.899 333.619 624.178 316.571C625.456 299.523 618.406 280.081 603.604 259.834C588.801 239.587 566.667 219.11 539.011 200.077C511.354 181.045 478.96 163.997 444.478 150.327C409.996 136.657 374.405 126.754 340.614 121.428C306.823 116.101 275.792 115.502 250.058 119.679C230.314 122.885 214.118 128.832 202.198 137.195C196.194 141.408 202.837 150.407 215.527 156.507L262.406 179.041C275.101 185.143 288.966 185.959 296.012 182.34C301.885 179.324 309.062 177.103 317.369 175.754C331.678 173.431 348.932 173.765 367.72 176.726C386.509 179.688 406.298 185.194 425.471 192.795C444.644 200.396 462.656 209.875 478.033 220.457C493.411 231.04 505.718 242.426 513.949 253.683C522.179 264.941 526.099 275.751 525.388 285.23C524.677 294.709 519.355 302.588 509.858 308.221C504.343 311.493 497.512 313.953 489.578 315.551C480.06 317.468 476.856 323.986 484.396 331.808L512.249 360.704Z" fill="url(#paint1_linear_301_7362)" fill-opacity="0.1"/>
<path d="M549.249 303.704C556.788 311.526 572.099 317.633 582.421 316.389C602.904 313.921 620.143 308.693 633.247 300.92C650.328 290.788 659.899 276.619 661.177 259.571C662.456 242.523 655.406 223.081 640.604 202.834C625.801 182.587 603.667 162.11 576.01 143.077C548.354 124.045 515.96 106.997 481.478 93.327C446.996 79.6574 411.405 69.7544 377.614 64.4278C343.823 59.1011 312.792 58.502 287.058 62.6795C267.314 65.8846 251.118 71.8318 239.198 80.1947C233.193 84.4076 239.837 93.4072 252.527 99.5071L299.406 122.041C312.101 128.143 325.965 128.959 333.012 125.34C338.884 122.324 346.062 120.103 354.369 118.754C368.678 116.431 385.932 116.765 404.72 119.726C423.509 122.688 443.298 128.194 462.471 135.795C481.644 143.396 499.655 152.875 515.033 163.457C530.411 174.04 542.718 185.426 550.948 196.683C559.179 207.941 563.099 218.751 562.388 228.23C561.677 237.709 556.355 245.588 546.858 251.221C541.343 254.493 534.512 256.953 526.578 258.551C517.06 260.468 513.856 266.986 521.396 274.808L549.249 303.704Z" fill="#2F82FF"/>
<g clip-path="url(#clip0_301_7362)">
<path d="M157.44 170.022C144.484 164.233 130.705 163.772 128.359 169.678C122.393 184.697 124.669 202.712 135.157 222.224C148.127 246.354 173.057 271.659 206.713 294.857C240.37 318.055 281.198 338.075 323.901 352.319C358.434 363.837 392.904 371.149 424.386 373.717C436.767 374.727 440.675 368.388 433.87 360.557L410.77 333.974C403.965 326.144 389.012 319.849 376.189 318.133C361.543 316.173 346.009 312.52 330.452 307.331C306.709 299.411 284.007 288.28 265.293 275.381C246.58 262.482 232.718 248.412 225.506 234.995C220.78 226.203 219.054 217.958 220.334 210.703C221.454 204.354 214.354 195.451 201.403 189.665L157.44 170.022Z" fill="#39CEF3" fill-opacity="0.1"/>
</g>
<g clip-path="url(#clip1_301_7362)">
<path d="M175.44 149.022C162.484 143.233 148.705 142.772 146.359 148.678C140.393 163.697 142.669 181.712 153.157 201.224C166.127 225.354 191.057 250.659 224.713 273.857C258.37 297.055 299.198 317.075 341.901 331.319C376.434 342.837 410.904 350.149 442.386 352.717C454.767 353.727 458.675 347.388 451.87 339.557L428.77 312.974C421.965 305.144 407.012 298.849 394.189 297.133C379.543 295.173 364.009 291.52 348.452 286.331C324.709 278.411 302.007 267.28 283.293 254.381C264.58 241.482 250.718 227.412 243.506 213.995C238.78 205.203 237.054 196.958 238.334 189.703C239.454 183.354 232.354 174.451 219.403 168.665L175.44 149.022Z" fill="#39CEF3" fill-opacity="0.4"/>
</g>
<g filter="url(#filter1_d_301_7362)">
<path d="M193.44 126.022C180.484 120.233 166.705 119.772 164.359 125.678C158.393 140.697 160.669 158.712 171.157 178.224C184.127 202.354 209.057 227.659 242.713 250.857C276.37 274.055 317.198 294.075 359.901 308.319C394.434 319.837 428.904 327.149 460.386 329.717C472.767 330.727 476.675 324.388 469.87 316.557L446.77 289.974C439.965 282.144 425.012 275.849 412.189 274.133C397.543 272.173 382.009 268.52 366.452 263.331C342.709 255.411 320.007 244.28 301.293 231.381C282.58 218.482 268.718 204.412 261.506 190.995C256.78 182.203 255.054 173.958 256.334 166.703C257.454 160.354 250.354 151.451 237.403 145.665L193.44 126.022Z" fill="#39CEF3"/>
</g>
<path d="M513.75 14.7646H457.319L433.75 57.7646" stroke="#CDCDCD" stroke-width="2" stroke-dasharray="10 10"/>
<path d="M530.281 39.8713L526.516 50.2385H524.977L529.312 38.8635H530.305L530.281 39.8713ZM533.438 50.2385L529.664 39.8713L529.641 38.8635H530.633L534.984 50.2385H533.438ZM533.242 46.0276V47.262H526.852V46.0276H533.242ZM537.859 38.2385V50.2385H536.406V38.2385H537.859ZM541.625 43.1135V50.2385H540.18V41.7854H541.586L541.625 43.1135ZM544.266 41.7385L544.258 43.0823C544.138 43.0562 544.023 43.0406 543.914 43.0354C543.81 43.025 543.69 43.0198 543.555 43.0198C543.221 43.0198 542.927 43.0719 542.672 43.176C542.417 43.2802 542.201 43.426 542.023 43.6135C541.846 43.801 541.706 44.025 541.602 44.2854C541.503 44.5406 541.438 44.8219 541.406 45.1292L541 45.3635C541 44.8531 541.049 44.3739 541.148 43.926C541.253 43.4781 541.411 43.0823 541.625 42.7385C541.839 42.3896 542.109 42.1187 542.438 41.926C542.771 41.7281 543.167 41.6292 543.625 41.6292C543.729 41.6292 543.849 41.6422 543.984 41.6682C544.12 41.689 544.214 41.7125 544.266 41.7385ZM548.953 50.3948C548.365 50.3948 547.831 50.2958 547.352 50.0979C546.878 49.8948 546.469 49.6109 546.125 49.2463C545.786 48.8818 545.526 48.4495 545.344 47.9495C545.161 47.4495 545.07 46.9026 545.07 46.3088V45.9807C545.07 45.2932 545.172 44.6812 545.375 44.1448C545.578 43.6031 545.854 43.1448 546.203 42.7698C546.552 42.3948 546.948 42.1109 547.391 41.9182C547.833 41.7255 548.292 41.6292 548.766 41.6292C549.37 41.6292 549.891 41.7333 550.328 41.9417C550.771 42.15 551.133 42.4417 551.414 42.8167C551.695 43.1864 551.904 43.6239 552.039 44.1292C552.174 44.6292 552.242 45.176 552.242 45.7698V46.4182H545.93V45.2385H550.797V45.1292C550.776 44.7542 550.698 44.3896 550.562 44.0354C550.432 43.6812 550.224 43.3896 549.938 43.1604C549.651 42.9312 549.26 42.8167 548.766 42.8167C548.438 42.8167 548.135 42.887 547.859 43.0276C547.583 43.163 547.346 43.3661 547.148 43.637C546.951 43.9078 546.797 44.2385 546.688 44.6292C546.578 45.0198 546.523 45.4703 546.523 45.9807V46.3088C546.523 46.7099 546.578 47.0875 546.688 47.4417C546.802 47.7906 546.966 48.0979 547.18 48.3635C547.398 48.6292 547.661 48.8375 547.969 48.9885C548.281 49.1396 548.635 49.2151 549.031 49.2151C549.542 49.2151 549.974 49.1109 550.328 48.9026C550.682 48.6943 550.992 48.4156 551.258 48.0667L552.133 48.762C551.951 49.038 551.719 49.301 551.438 49.551C551.156 49.801 550.81 50.0042 550.398 50.1604C549.992 50.3167 549.51 50.3948 548.953 50.3948ZM558.914 48.7932V44.4417C558.914 44.1083 558.846 43.8193 558.711 43.5745C558.581 43.3245 558.383 43.1318 558.117 42.9963C557.852 42.8609 557.523 42.7932 557.133 42.7932C556.768 42.7932 556.448 42.8557 556.172 42.9807C555.901 43.1057 555.688 43.2698 555.531 43.4729C555.38 43.676 555.305 43.8948 555.305 44.1292H553.859C553.859 43.8271 553.938 43.5276 554.094 43.2307C554.25 42.9338 554.474 42.6656 554.766 42.426C555.062 42.1812 555.417 41.9885 555.828 41.8479C556.245 41.7021 556.708 41.6292 557.219 41.6292C557.833 41.6292 558.375 41.7333 558.844 41.9417C559.318 42.15 559.688 42.4651 559.953 42.887C560.224 43.3036 560.359 43.8271 560.359 44.4573V48.3948C560.359 48.676 560.383 48.9755 560.43 49.2932C560.482 49.6109 560.557 49.8844 560.656 50.1135V50.2385H559.148C559.076 50.0719 559.018 49.8505 558.977 49.5745C558.935 49.2932 558.914 49.0328 558.914 48.7932ZM559.164 45.1135L559.18 46.1292H557.719C557.307 46.1292 556.94 46.163 556.617 46.2307C556.294 46.2932 556.023 46.3896 555.805 46.5198C555.586 46.65 555.419 46.814 555.305 47.012C555.19 47.2047 555.133 47.4312 555.133 47.6917C555.133 47.9573 555.193 48.1995 555.312 48.4182C555.432 48.637 555.612 48.8114 555.852 48.9417C556.096 49.0667 556.396 49.1292 556.75 49.1292C557.193 49.1292 557.583 49.0354 557.922 48.8479C558.26 48.6604 558.529 48.4312 558.727 48.1604C558.93 47.8896 559.039 47.6265 559.055 47.3713L559.672 48.0667C559.635 48.2854 559.536 48.5276 559.375 48.7932C559.214 49.0588 558.997 49.314 558.727 49.5588C558.461 49.7984 558.143 49.9989 557.773 50.1604C557.409 50.3167 556.997 50.3948 556.539 50.3948C555.966 50.3948 555.464 50.2828 555.031 50.0588C554.604 49.8349 554.271 49.5354 554.031 49.1604C553.797 48.7802 553.68 48.3557 553.68 47.887C553.68 47.4338 553.768 47.0354 553.945 46.6917C554.122 46.3427 554.378 46.0536 554.711 45.8245C555.044 45.5901 555.445 45.413 555.914 45.2932C556.383 45.1734 556.906 45.1135 557.484 45.1135H559.164ZM567.961 48.5979V38.2385H569.414V50.2385H568.086L567.961 48.5979ZM562.273 46.1057V45.9417C562.273 45.2958 562.352 44.7099 562.508 44.1838C562.669 43.6526 562.896 43.1969 563.188 42.8167C563.484 42.4364 563.836 42.1448 564.242 41.9417C564.654 41.7333 565.112 41.6292 565.617 41.6292C566.148 41.6292 566.612 41.7229 567.008 41.9104C567.409 42.0927 567.747 42.3609 568.023 42.7151C568.305 43.064 568.526 43.4859 568.688 43.9807C568.849 44.4755 568.961 45.0354 569.023 45.6604V46.3792C568.966 46.9989 568.854 47.5562 568.688 48.051C568.526 48.5458 568.305 48.9677 568.023 49.3167C567.747 49.6656 567.409 49.9338 567.008 50.1213C566.607 50.3036 566.138 50.3948 565.602 50.3948C565.107 50.3948 564.654 50.288 564.242 50.0745C563.836 49.8609 563.484 49.5614 563.188 49.176C562.896 48.7906 562.669 48.3375 562.508 47.8167C562.352 47.2906 562.273 46.7203 562.273 46.1057ZM563.727 45.9417V46.1057C563.727 46.5276 563.768 46.9234 563.852 47.2932C563.94 47.663 564.076 47.9885 564.258 48.2698C564.44 48.551 564.672 48.7724 564.953 48.9338C565.234 49.0901 565.57 49.1682 565.961 49.1682C566.44 49.1682 566.833 49.0667 567.141 48.8635C567.453 48.6604 567.703 48.3922 567.891 48.0588C568.078 47.7255 568.224 47.3635 568.328 46.9729V45.0901C568.266 44.8036 568.174 44.5276 568.055 44.262C567.94 43.9911 567.789 43.7515 567.602 43.5432C567.419 43.3297 567.193 43.1604 566.922 43.0354C566.656 42.9104 566.341 42.8479 565.977 42.8479C565.581 42.8479 565.24 42.9312 564.953 43.0979C564.672 43.2594 564.44 43.4833 564.258 43.7698C564.076 44.051 563.94 44.3792 563.852 44.7542C563.768 45.1239 563.727 45.5198 563.727 45.9417ZM574.039 49.3635L576.391 41.7854H577.938L574.547 51.5432C574.469 51.7515 574.365 51.9755 574.234 52.2151C574.109 52.4599 573.948 52.6917 573.75 52.9104C573.552 53.1292 573.312 53.3062 573.031 53.4417C572.755 53.5823 572.424 53.6526 572.039 53.6526C571.924 53.6526 571.779 53.637 571.602 53.6057C571.424 53.5745 571.299 53.5484 571.227 53.5276L571.219 52.3557C571.26 52.3609 571.326 52.3661 571.414 52.3713C571.508 52.3818 571.573 52.387 571.609 52.387C571.938 52.387 572.216 52.3427 572.445 52.2542C572.674 52.1708 572.867 52.0276 573.023 51.8245C573.185 51.6265 573.323 51.3531 573.438 51.0042L574.039 49.3635ZM572.312 41.7854L574.508 48.3479L574.883 49.8713L573.844 50.4026L570.734 41.7854H572.312ZM587.625 45.7776H584.586V44.551H587.625C588.214 44.551 588.69 44.4573 589.055 44.2698C589.419 44.0823 589.685 43.8219 589.852 43.4885C590.023 43.1552 590.109 42.775 590.109 42.3479C590.109 41.9573 590.023 41.5901 589.852 41.2463C589.685 40.9026 589.419 40.6265 589.055 40.4182C588.69 40.2047 588.214 40.0979 587.625 40.0979H584.938V50.2385H583.43V38.8635H587.625C588.484 38.8635 589.211 39.012 589.805 39.3088C590.398 39.6057 590.849 40.0172 591.156 40.5432C591.464 41.064 591.617 41.6604 591.617 42.3323C591.617 43.0614 591.464 43.6838 591.156 44.1995C590.849 44.7151 590.398 45.1083 589.805 45.3792C589.211 45.6448 588.484 45.7776 587.625 45.7776ZM598.477 48.2854V41.7854H599.93V50.2385H598.547L598.477 48.2854ZM598.75 46.5042L599.352 46.4885C599.352 47.051 599.292 47.5719 599.172 48.051C599.057 48.525 598.87 48.9364 598.609 49.2854C598.349 49.6344 598.008 49.9078 597.586 50.1057C597.164 50.2984 596.651 50.3948 596.047 50.3948C595.635 50.3948 595.258 50.3349 594.914 50.2151C594.576 50.0953 594.284 49.9104 594.039 49.6604C593.794 49.4104 593.604 49.0849 593.469 48.6838C593.339 48.2828 593.273 47.801 593.273 47.2385V41.7854H594.719V47.2542C594.719 47.6344 594.76 47.9495 594.844 48.1995C594.932 48.4443 595.049 48.6396 595.195 48.7854C595.346 48.926 595.513 49.025 595.695 49.0823C595.883 49.1396 596.076 49.1682 596.273 49.1682C596.888 49.1682 597.375 49.051 597.734 48.8167C598.094 48.5771 598.352 48.2568 598.508 47.8557C598.669 47.4495 598.75 46.9989 598.75 46.5042ZM603.578 43.1135V50.2385H602.133V41.7854H603.539L603.578 43.1135ZM606.219 41.7385L606.211 43.0823C606.091 43.0562 605.977 43.0406 605.867 43.0354C605.763 43.025 605.643 43.0198 605.508 43.0198C605.174 43.0198 604.88 43.0719 604.625 43.176C604.37 43.2802 604.154 43.426 603.977 43.6135C603.799 43.801 603.659 44.025 603.555 44.2854C603.456 44.5406 603.391 44.8219 603.359 45.1292L602.953 45.3635C602.953 44.8531 603.003 44.3739 603.102 43.926C603.206 43.4781 603.365 43.0823 603.578 42.7385C603.792 42.3896 604.062 42.1187 604.391 41.926C604.724 41.7281 605.12 41.6292 605.578 41.6292C605.682 41.6292 605.802 41.6422 605.938 41.6682C606.073 41.689 606.167 41.7125 606.219 41.7385ZM610.781 49.2073C611.125 49.2073 611.443 49.137 611.734 48.9963C612.026 48.8557 612.266 48.663 612.453 48.4182C612.641 48.1682 612.747 47.8844 612.773 47.5667H614.148C614.122 48.0667 613.953 48.5328 613.641 48.9651C613.333 49.3922 612.93 49.7385 612.43 50.0042C611.93 50.2646 611.38 50.3948 610.781 50.3948C610.146 50.3948 609.591 50.2828 609.117 50.0588C608.648 49.8349 608.258 49.5276 607.945 49.137C607.638 48.7463 607.406 48.2984 607.25 47.7932C607.099 47.2828 607.023 46.7437 607.023 46.176V45.8479C607.023 45.2802 607.099 44.7437 607.25 44.2385C607.406 43.7281 607.638 43.2776 607.945 42.887C608.258 42.4963 608.648 42.189 609.117 41.9651C609.591 41.7411 610.146 41.6292 610.781 41.6292C611.443 41.6292 612.021 41.7646 612.516 42.0354C613.01 42.301 613.398 42.6656 613.68 43.1292C613.966 43.5875 614.122 44.1083 614.148 44.6917H612.773C612.747 44.3427 612.648 44.0276 612.477 43.7463C612.31 43.4651 612.081 43.2411 611.789 43.0745C611.503 42.9026 611.167 42.8167 610.781 42.8167C610.339 42.8167 609.966 42.9052 609.664 43.0823C609.367 43.2542 609.13 43.4885 608.953 43.7854C608.781 44.0771 608.656 44.4026 608.578 44.762C608.505 45.1161 608.469 45.4781 608.469 45.8479V46.176C608.469 46.5458 608.505 46.9104 608.578 47.2698C608.651 47.6292 608.773 47.9547 608.945 48.2463C609.122 48.538 609.359 48.7724 609.656 48.9495C609.958 49.1213 610.333 49.2073 610.781 49.2073ZM617.219 38.2385V50.2385H615.773V38.2385H617.219ZM616.875 45.6917L616.273 45.6682C616.279 45.0901 616.365 44.5562 616.531 44.0667C616.698 43.5719 616.932 43.1422 617.234 42.7776C617.536 42.413 617.896 42.1318 618.312 41.9338C618.734 41.7307 619.201 41.6292 619.711 41.6292C620.128 41.6292 620.503 41.6864 620.836 41.801C621.169 41.9104 621.453 42.0875 621.688 42.3323C621.927 42.5771 622.109 42.8948 622.234 43.2854C622.359 43.6708 622.422 44.1422 622.422 44.6995V50.2385H620.969V44.6838C620.969 44.2411 620.904 43.887 620.773 43.6213C620.643 43.3505 620.453 43.1552 620.203 43.0354C619.953 42.9104 619.646 42.8479 619.281 42.8479C618.922 42.8479 618.594 42.9234 618.297 43.0745C618.005 43.2255 617.753 43.4338 617.539 43.6995C617.331 43.9651 617.167 44.2698 617.047 44.6135C616.932 44.9521 616.875 45.3114 616.875 45.6917ZM629.57 48.7932V44.4417C629.57 44.1083 629.503 43.8193 629.367 43.5745C629.237 43.3245 629.039 43.1318 628.773 42.9963C628.508 42.8609 628.18 42.7932 627.789 42.7932C627.424 42.7932 627.104 42.8557 626.828 42.9807C626.557 43.1057 626.344 43.2698 626.188 43.4729C626.036 43.676 625.961 43.8948 625.961 44.1292H624.516C624.516 43.8271 624.594 43.5276 624.75 43.2307C624.906 42.9338 625.13 42.6656 625.422 42.426C625.719 42.1812 626.073 41.9885 626.484 41.8479C626.901 41.7021 627.365 41.6292 627.875 41.6292C628.49 41.6292 629.031 41.7333 629.5 41.9417C629.974 42.15 630.344 42.4651 630.609 42.887C630.88 43.3036 631.016 43.8271 631.016 44.4573V48.3948C631.016 48.676 631.039 48.9755 631.086 49.2932C631.138 49.6109 631.214 49.8844 631.312 50.1135V50.2385H629.805C629.732 50.0719 629.674 49.8505 629.633 49.5745C629.591 49.2932 629.57 49.0328 629.57 48.7932ZM629.82 45.1135L629.836 46.1292H628.375C627.964 46.1292 627.596 46.163 627.273 46.2307C626.951 46.2932 626.68 46.3896 626.461 46.5198C626.242 46.65 626.076 46.814 625.961 47.012C625.846 47.2047 625.789 47.4312 625.789 47.6917C625.789 47.9573 625.849 48.1995 625.969 48.4182C626.089 48.637 626.268 48.8114 626.508 48.9417C626.753 49.0667 627.052 49.1292 627.406 49.1292C627.849 49.1292 628.24 49.0354 628.578 48.8479C628.917 48.6604 629.185 48.4312 629.383 48.1604C629.586 47.8896 629.695 47.6265 629.711 47.3713L630.328 48.0667C630.292 48.2854 630.193 48.5276 630.031 48.7932C629.87 49.0588 629.654 49.314 629.383 49.5588C629.117 49.7984 628.799 49.9989 628.43 50.1604C628.065 50.3167 627.654 50.3948 627.195 50.3948C626.622 50.3948 626.12 50.2828 625.688 50.0588C625.26 49.8349 624.927 49.5354 624.688 49.1604C624.453 48.7802 624.336 48.3557 624.336 47.887C624.336 47.4338 624.424 47.0354 624.602 46.6917C624.779 46.3427 625.034 46.0536 625.367 45.8245C625.701 45.5901 626.102 45.413 626.57 45.2932C627.039 45.1734 627.562 45.1135 628.141 45.1135H629.82ZM638.211 47.9963C638.211 47.788 638.164 47.5953 638.07 47.4182C637.982 47.2359 637.797 47.0719 637.516 46.926C637.24 46.775 636.823 46.6448 636.266 46.5354C635.797 46.4364 635.372 46.3193 634.992 46.1838C634.617 46.0484 634.297 45.8844 634.031 45.6917C633.771 45.4989 633.57 45.2724 633.43 45.012C633.289 44.7515 633.219 44.4469 633.219 44.0979C633.219 43.7646 633.292 43.4495 633.438 43.1526C633.589 42.8557 633.799 42.5927 634.07 42.3635C634.346 42.1344 634.677 41.9547 635.062 41.8245C635.448 41.6943 635.878 41.6292 636.352 41.6292C637.029 41.6292 637.607 41.7489 638.086 41.9885C638.565 42.2281 638.932 42.5484 639.188 42.9495C639.443 43.3453 639.57 43.7854 639.57 44.2698H638.125C638.125 44.0354 638.055 43.8088 637.914 43.5901C637.779 43.3661 637.578 43.1812 637.312 43.0354C637.052 42.8896 636.732 42.8167 636.352 42.8167C635.951 42.8167 635.625 42.8792 635.375 43.0042C635.13 43.1239 634.951 43.2776 634.836 43.4651C634.727 43.6526 634.672 43.8505 634.672 44.0588C634.672 44.2151 634.698 44.3557 634.75 44.4807C634.807 44.6005 634.906 44.7125 635.047 44.8167C635.188 44.9156 635.385 45.0094 635.641 45.0979C635.896 45.1864 636.221 45.275 636.617 45.3635C637.31 45.5198 637.88 45.7073 638.328 45.926C638.776 46.1448 639.109 46.413 639.328 46.7307C639.547 47.0484 639.656 47.4338 639.656 47.887C639.656 48.2568 639.578 48.5953 639.422 48.9026C639.271 49.2099 639.049 49.4755 638.758 49.6995C638.471 49.9182 638.128 50.0901 637.727 50.2151C637.331 50.3349 636.885 50.3948 636.391 50.3948C635.646 50.3948 635.016 50.262 634.5 49.9963C633.984 49.7307 633.594 49.387 633.328 48.9651C633.062 48.5432 632.93 48.0979 632.93 47.6292H634.383C634.404 48.025 634.518 48.3401 634.727 48.5745C634.935 48.8036 635.19 48.9677 635.492 49.0667C635.794 49.1604 636.094 49.2073 636.391 49.2073C636.786 49.2073 637.117 49.1552 637.383 49.051C637.654 48.9469 637.859 48.8036 638 48.6213C638.141 48.439 638.211 48.2307 638.211 47.9963ZM645.062 50.3948C644.474 50.3948 643.94 50.2958 643.461 50.0979C642.987 49.8948 642.578 49.6109 642.234 49.2463C641.896 48.8818 641.635 48.4495 641.453 47.9495C641.271 47.4495 641.18 46.9026 641.18 46.3088V45.9807C641.18 45.2932 641.281 44.6812 641.484 44.1448C641.688 43.6031 641.964 43.1448 642.312 42.7698C642.661 42.3948 643.057 42.1109 643.5 41.9182C643.943 41.7255 644.401 41.6292 644.875 41.6292C645.479 41.6292 646 41.7333 646.438 41.9417C646.88 42.15 647.242 42.4417 647.523 42.8167C647.805 43.1864 648.013 43.6239 648.148 44.1292C648.284 44.6292 648.352 45.176 648.352 45.7698V46.4182H642.039V45.2385H646.906V45.1292C646.885 44.7542 646.807 44.3896 646.672 44.0354C646.542 43.6812 646.333 43.3896 646.047 43.1604C645.76 42.9312 645.37 42.8167 644.875 42.8167C644.547 42.8167 644.245 42.887 643.969 43.0276C643.693 43.163 643.456 43.3661 643.258 43.637C643.06 43.9078 642.906 44.2385 642.797 44.6292C642.688 45.0198 642.633 45.4703 642.633 45.9807V46.3088C642.633 46.7099 642.688 47.0875 642.797 47.4417C642.911 47.7906 643.076 48.0979 643.289 48.3635C643.508 48.6292 643.771 48.8375 644.078 48.9885C644.391 49.1396 644.745 49.2151 645.141 49.2151C645.651 49.2151 646.083 49.1109 646.438 48.9026C646.792 48.6943 647.102 48.4156 647.367 48.0667L648.242 48.762C648.06 49.038 647.828 49.301 647.547 49.551C647.266 49.801 646.919 50.0042 646.508 50.1604C646.102 50.3167 645.62 50.3948 645.062 50.3948ZM655.367 48.5979V38.2385H656.82V50.2385H655.492L655.367 48.5979ZM649.68 46.1057V45.9417C649.68 45.2958 649.758 44.7099 649.914 44.1838C650.076 43.6526 650.302 43.1969 650.594 42.8167C650.891 42.4364 651.242 42.1448 651.648 41.9417C652.06 41.7333 652.518 41.6292 653.023 41.6292C653.555 41.6292 654.018 41.7229 654.414 41.9104C654.815 42.0927 655.154 42.3609 655.43 42.7151C655.711 43.064 655.932 43.4859 656.094 43.9807C656.255 44.4755 656.367 45.0354 656.43 45.6604V46.3792C656.372 46.9989 656.26 47.5562 656.094 48.051C655.932 48.5458 655.711 48.9677 655.43 49.3167C655.154 49.6656 654.815 49.9338 654.414 50.1213C654.013 50.3036 653.544 50.3948 653.008 50.3948C652.513 50.3948 652.06 50.288 651.648 50.0745C651.242 49.8609 650.891 49.5614 650.594 49.176C650.302 48.7906 650.076 48.3375 649.914 47.8167C649.758 47.2906 649.68 46.7203 649.68 46.1057ZM651.133 45.9417V46.1057C651.133 46.5276 651.174 46.9234 651.258 47.2932C651.346 47.663 651.482 47.9885 651.664 48.2698C651.846 48.551 652.078 48.7724 652.359 48.9338C652.641 49.0901 652.977 49.1682 653.367 49.1682C653.846 49.1682 654.24 49.0667 654.547 48.8635C654.859 48.6604 655.109 48.3922 655.297 48.0588C655.484 47.7255 655.63 47.3635 655.734 46.9729V45.0901C655.672 44.8036 655.581 44.5276 655.461 44.262C655.346 43.9911 655.195 43.7515 655.008 43.5432C654.826 43.3297 654.599 43.1604 654.328 43.0354C654.062 42.9104 653.747 42.8479 653.383 42.8479C652.987 42.8479 652.646 42.9312 652.359 43.0979C652.078 43.2594 651.846 43.4833 651.664 43.7698C651.482 44.051 651.346 44.3792 651.258 44.7542C651.174 45.1239 651.133 45.5198 651.133 45.9417Z" fill="white"/>
<path d="M530.185 16.0527L526.815 15.2471L528.031 4.43652H540.014V7.84961H531.503L530.976 12.5811C531.259 12.415 531.688 12.2393 532.265 12.0537C532.841 11.8584 533.485 11.7607 534.198 11.7607C535.233 11.7607 536.151 11.9219 536.952 12.2441C537.753 12.5664 538.432 13.0352 538.988 13.6504C539.555 14.2656 539.984 15.0176 540.277 15.9062C540.57 16.7949 540.717 17.8008 540.717 18.9238C540.717 19.8711 540.57 20.7744 540.277 21.6338C539.984 22.4834 539.54 23.2451 538.944 23.9189C538.349 24.583 537.602 25.1055 536.703 25.4863C535.805 25.8672 534.74 26.0576 533.51 26.0576C532.592 26.0576 531.703 25.9209 530.844 25.6475C529.994 25.374 529.228 24.9688 528.544 24.4316C527.87 23.8945 527.328 23.2451 526.918 22.4834C526.518 21.7119 526.308 20.833 526.288 19.8467H530.478C530.536 20.4521 530.692 20.9746 530.946 21.4141C531.21 21.8438 531.557 22.1758 531.986 22.4102C532.416 22.6445 532.919 22.7617 533.495 22.7617C534.032 22.7617 534.491 22.6592 534.872 22.4541C535.253 22.249 535.561 21.9658 535.795 21.6045C536.029 21.2334 536.2 20.8037 536.308 20.3154C536.425 19.8174 536.483 19.2803 536.483 18.7041C536.483 18.1279 536.415 17.6055 536.278 17.1367C536.142 16.668 535.932 16.2627 535.648 15.9209C535.365 15.5791 535.004 15.3154 534.564 15.1299C534.135 14.9443 533.632 14.8516 533.056 14.8516C532.274 14.8516 531.669 14.9736 531.239 15.2178C530.819 15.4619 530.468 15.7402 530.185 16.0527ZM557.812 19.9199C557.812 21.2578 557.499 22.3857 556.874 23.3037C556.249 24.2119 555.39 24.9004 554.296 25.3691C553.212 25.8281 551.981 26.0576 550.604 26.0576C549.228 26.0576 547.992 25.8281 546.898 25.3691C545.805 24.9004 544.94 24.2119 544.306 23.3037C543.671 22.3857 543.354 21.2578 543.354 19.9199C543.354 19.0215 543.534 18.2109 543.896 17.4883C544.257 16.7559 544.76 16.1309 545.404 15.6133C546.059 15.0859 546.825 14.6855 547.704 14.4121C548.583 14.1289 549.54 13.9873 550.575 13.9873C551.962 13.9873 553.202 14.2314 554.296 14.7197C555.39 15.208 556.249 15.8965 556.874 16.7852C557.499 17.6738 557.812 18.7188 557.812 19.9199ZM553.563 19.6416C553.563 18.9873 553.437 18.4258 553.183 17.957C552.938 17.4785 552.592 17.1123 552.143 16.8584C551.693 16.6045 551.171 16.4775 550.575 16.4775C549.979 16.4775 549.457 16.6045 549.008 16.8584C548.559 17.1123 548.207 17.4785 547.953 17.957C547.709 18.4258 547.587 18.9873 547.587 19.6416C547.587 20.2861 547.709 20.8428 547.953 21.3115C548.207 21.7803 548.559 22.1416 549.008 22.3955C549.467 22.6396 549.999 22.7617 550.604 22.7617C551.21 22.7617 551.732 22.6396 552.172 22.3955C552.621 22.1416 552.963 21.7803 553.197 21.3115C553.441 20.8428 553.563 20.2861 553.563 19.6416ZM557.357 10.0908C557.357 11.1748 557.069 12.1367 556.493 12.9766C555.917 13.8066 555.116 14.4561 554.091 14.9248C553.075 15.3936 551.913 15.6279 550.604 15.6279C549.286 15.6279 548.114 15.3936 547.089 14.9248C546.063 14.4561 545.263 13.8066 544.687 12.9766C544.11 12.1367 543.822 11.1748 543.822 10.0908C543.822 8.80176 544.11 7.71777 544.687 6.83887C545.272 5.9502 546.073 5.27637 547.089 4.81738C548.114 4.3584 549.276 4.12891 550.575 4.12891C551.894 4.12891 553.061 4.3584 554.076 4.81738C555.102 5.27637 555.902 5.9502 556.479 6.83887C557.064 7.71777 557.357 8.80176 557.357 10.0908ZM553.139 10.2812C553.139 9.70508 553.036 9.20703 552.831 8.78711C552.626 8.35742 552.333 8.02539 551.952 7.79102C551.581 7.55664 551.122 7.43945 550.575 7.43945C550.048 7.43945 549.594 7.55176 549.213 7.77637C548.842 8.00098 548.554 8.32812 548.349 8.75781C548.153 9.17773 548.056 9.68555 548.056 10.2812C548.056 10.8574 548.153 11.3652 548.349 11.8047C548.554 12.2344 548.847 12.5713 549.228 12.8154C549.608 13.0596 550.067 13.1816 550.604 13.1816C551.142 13.1816 551.596 13.0596 551.967 12.8154C552.348 12.5713 552.636 12.2344 552.831 11.8047C553.036 11.3652 553.139 10.8574 553.139 10.2812ZM560.609 9.66602V8.53809C560.609 7.72754 560.785 6.99023 561.137 6.32617C561.488 5.66211 562.006 5.12988 562.689 4.72949C563.373 4.3291 564.213 4.12891 565.209 4.12891C566.234 4.12891 567.089 4.3291 567.772 4.72949C568.466 5.12988 568.983 5.66211 569.325 6.32617C569.677 6.99023 569.853 7.72754 569.853 8.53809V9.66602C569.853 10.457 569.677 11.1846 569.325 11.8486C568.983 12.5127 568.471 13.0449 567.787 13.4453C567.104 13.8457 566.259 14.0459 565.253 14.0459C564.237 14.0459 563.383 13.8457 562.689 13.4453C562.006 13.0449 561.488 12.5127 561.137 11.8486C560.785 11.1846 560.609 10.457 560.609 9.66602ZM563.407 8.53809V9.66602C563.407 10.0078 563.471 10.335 563.598 10.6475C563.734 10.9502 563.939 11.1992 564.213 11.3945C564.496 11.5801 564.838 11.6729 565.238 11.6729C565.658 11.6729 566 11.5801 566.264 11.3945C566.527 11.1992 566.723 10.9502 566.85 10.6475C566.977 10.335 567.04 10.0078 567.04 9.66602V8.53809C567.04 8.17676 566.972 7.84473 566.835 7.54199C566.708 7.22949 566.508 6.98047 566.234 6.79492C565.971 6.59961 565.629 6.50195 565.209 6.50195C564.818 6.50195 564.486 6.59961 564.213 6.79492C563.939 6.98047 563.734 7.22949 563.598 7.54199C563.471 7.84473 563.407 8.17676 563.407 8.53809ZM570.805 21.6631V20.5352C570.805 19.7344 570.98 19.002 571.332 18.3379C571.693 17.6738 572.216 17.1416 572.899 16.7412C573.593 16.3408 574.442 16.1406 575.448 16.1406C576.464 16.1406 577.313 16.3408 577.997 16.7412C578.681 17.1416 579.198 17.6738 579.55 18.3379C579.901 19.002 580.077 19.7344 580.077 20.5352V21.6631C580.077 22.4639 579.901 23.1963 579.55 23.8604C579.208 24.5244 578.695 25.0566 578.012 25.457C577.328 25.8574 576.483 26.0576 575.478 26.0576C574.462 26.0576 573.607 25.8574 572.914 25.457C572.221 25.0566 571.693 24.5244 571.332 23.8604C570.98 23.1963 570.805 22.4639 570.805 21.6631ZM573.617 20.5352V21.6631C573.617 22.0146 573.695 22.3467 573.852 22.6592C574.008 22.9717 574.223 23.2207 574.496 23.4062C574.779 23.5918 575.106 23.6846 575.478 23.6846C575.946 23.6846 576.312 23.5918 576.576 23.4062C576.84 23.2207 577.021 22.9717 577.118 22.6592C577.226 22.3467 577.279 22.0146 577.279 21.6631V20.5352C577.279 20.1836 577.211 19.8564 577.074 19.5537C576.938 19.2412 576.732 18.9922 576.459 18.8066C576.195 18.6113 575.858 18.5137 575.448 18.5137C575.038 18.5137 574.696 18.6113 574.423 18.8066C574.159 18.9922 573.959 19.2412 573.822 19.5537C573.686 19.8564 573.617 20.1836 573.617 20.5352ZM576.488 7.4834L566.073 24.1533L564.022 23.0693L574.438 6.39941L576.488 7.4834Z" fill="#39CEF3"/>
<path d="M137.281 446.397L133.516 456.765H131.977L136.312 445.39H137.305L137.281 446.397ZM140.438 456.765L136.664 446.397L136.641 445.39H137.633L141.984 456.765H140.438ZM140.242 452.554V453.788H133.852V452.554H140.242ZM145.469 455.46L147.781 448.312H149.258L146.219 456.765H145.25L145.469 455.46ZM143.539 448.312L145.922 455.499L146.086 456.765H145.117L142.055 448.312H143.539ZM155.508 455.319V450.968C155.508 450.634 155.44 450.345 155.305 450.101C155.174 449.851 154.977 449.658 154.711 449.522C154.445 449.387 154.117 449.319 153.727 449.319C153.362 449.319 153.042 449.382 152.766 449.507C152.495 449.632 152.281 449.796 152.125 449.999C151.974 450.202 151.898 450.421 151.898 450.655H150.453C150.453 450.353 150.531 450.054 150.688 449.757C150.844 449.46 151.068 449.192 151.359 448.952C151.656 448.707 152.01 448.515 152.422 448.374C152.839 448.228 153.302 448.155 153.812 448.155C154.427 448.155 154.969 448.259 155.438 448.468C155.911 448.676 156.281 448.991 156.547 449.413C156.818 449.83 156.953 450.353 156.953 450.983V454.921C156.953 455.202 156.977 455.502 157.023 455.819C157.076 456.137 157.151 456.41 157.25 456.64V456.765H155.742C155.669 456.598 155.612 456.377 155.57 456.101C155.529 455.819 155.508 455.559 155.508 455.319ZM155.758 451.64L155.773 452.655H154.312C153.901 452.655 153.534 452.689 153.211 452.757C152.888 452.819 152.617 452.916 152.398 453.046C152.18 453.176 152.013 453.34 151.898 453.538C151.784 453.731 151.727 453.957 151.727 454.218C151.727 454.483 151.786 454.726 151.906 454.944C152.026 455.163 152.206 455.338 152.445 455.468C152.69 455.593 152.99 455.655 153.344 455.655C153.786 455.655 154.177 455.562 154.516 455.374C154.854 455.187 155.122 454.957 155.32 454.687C155.523 454.416 155.633 454.153 155.648 453.897L156.266 454.593C156.229 454.812 156.13 455.054 155.969 455.319C155.807 455.585 155.591 455.84 155.32 456.085C155.055 456.325 154.737 456.525 154.367 456.687C154.003 456.843 153.591 456.921 153.133 456.921C152.56 456.921 152.057 456.809 151.625 456.585C151.198 456.361 150.865 456.062 150.625 455.687C150.391 455.306 150.273 454.882 150.273 454.413C150.273 453.96 150.362 453.562 150.539 453.218C150.716 452.869 150.971 452.58 151.305 452.351C151.638 452.116 152.039 451.939 152.508 451.819C152.977 451.7 153.5 451.64 154.078 451.64H155.758ZM160.797 448.312V456.765H159.344V448.312H160.797ZM159.234 446.069C159.234 445.835 159.305 445.637 159.445 445.476C159.591 445.314 159.805 445.233 160.086 445.233C160.362 445.233 160.573 445.314 160.719 445.476C160.87 445.637 160.945 445.835 160.945 446.069C160.945 446.293 160.87 446.486 160.719 446.647C160.573 446.804 160.362 446.882 160.086 446.882C159.805 446.882 159.591 446.804 159.445 446.647C159.305 446.486 159.234 446.293 159.234 446.069ZM164.688 444.765V456.765H163.234V444.765H164.688ZM171.992 455.319V450.968C171.992 450.634 171.924 450.345 171.789 450.101C171.659 449.851 171.461 449.658 171.195 449.522C170.93 449.387 170.602 449.319 170.211 449.319C169.846 449.319 169.526 449.382 169.25 449.507C168.979 449.632 168.766 449.796 168.609 449.999C168.458 450.202 168.383 450.421 168.383 450.655H166.938C166.938 450.353 167.016 450.054 167.172 449.757C167.328 449.46 167.552 449.192 167.844 448.952C168.141 448.707 168.495 448.515 168.906 448.374C169.323 448.228 169.786 448.155 170.297 448.155C170.911 448.155 171.453 448.259 171.922 448.468C172.396 448.676 172.766 448.991 173.031 449.413C173.302 449.83 173.438 450.353 173.438 450.983V454.921C173.438 455.202 173.461 455.502 173.508 455.819C173.56 456.137 173.635 456.41 173.734 456.64V456.765H172.227C172.154 456.598 172.096 456.377 172.055 456.101C172.013 455.819 171.992 455.559 171.992 455.319ZM172.242 451.64L172.258 452.655H170.797C170.385 452.655 170.018 452.689 169.695 452.757C169.372 452.819 169.102 452.916 168.883 453.046C168.664 453.176 168.497 453.34 168.383 453.538C168.268 453.731 168.211 453.957 168.211 454.218C168.211 454.483 168.271 454.726 168.391 454.944C168.51 455.163 168.69 455.338 168.93 455.468C169.174 455.593 169.474 455.655 169.828 455.655C170.271 455.655 170.661 455.562 171 455.374C171.339 455.187 171.607 454.957 171.805 454.687C172.008 454.416 172.117 454.153 172.133 453.897L172.75 454.593C172.714 454.812 172.615 455.054 172.453 455.319C172.292 455.585 172.076 455.84 171.805 456.085C171.539 456.325 171.221 456.525 170.852 456.687C170.487 456.843 170.076 456.921 169.617 456.921C169.044 456.921 168.542 456.809 168.109 456.585C167.682 456.361 167.349 456.062 167.109 455.687C166.875 455.306 166.758 454.882 166.758 454.413C166.758 453.96 166.846 453.562 167.023 453.218C167.201 452.869 167.456 452.58 167.789 452.351C168.122 452.116 168.523 451.939 168.992 451.819C169.461 451.7 169.984 451.64 170.562 451.64H172.242ZM175.703 444.765H177.156V455.124L177.031 456.765H175.703V444.765ZM182.867 452.468V452.632C182.867 453.246 182.794 453.817 182.648 454.343C182.503 454.864 182.289 455.317 182.008 455.702C181.727 456.088 181.383 456.387 180.977 456.601C180.57 456.814 180.104 456.921 179.578 456.921C179.042 456.921 178.57 456.83 178.164 456.647C177.763 456.46 177.424 456.192 177.148 455.843C176.872 455.494 176.651 455.072 176.484 454.577C176.323 454.082 176.211 453.525 176.148 452.905V452.187C176.211 451.562 176.323 451.002 176.484 450.507C176.651 450.012 176.872 449.59 177.148 449.241C177.424 448.887 177.763 448.619 178.164 448.437C178.565 448.249 179.031 448.155 179.562 448.155C180.094 448.155 180.565 448.259 180.977 448.468C181.388 448.671 181.732 448.963 182.008 449.343C182.289 449.723 182.503 450.179 182.648 450.71C182.794 451.236 182.867 451.822 182.867 452.468ZM181.414 452.632V452.468C181.414 452.046 181.375 451.65 181.297 451.28C181.219 450.905 181.094 450.577 180.922 450.296C180.75 450.009 180.523 449.785 180.242 449.624C179.961 449.457 179.615 449.374 179.203 449.374C178.839 449.374 178.521 449.437 178.25 449.562C177.984 449.687 177.758 449.856 177.57 450.069C177.383 450.278 177.229 450.517 177.109 450.788C176.995 451.054 176.909 451.33 176.852 451.616V453.499C176.935 453.864 177.07 454.215 177.258 454.554C177.451 454.887 177.706 455.16 178.023 455.374C178.346 455.588 178.745 455.694 179.219 455.694C179.609 455.694 179.943 455.616 180.219 455.46C180.5 455.299 180.727 455.077 180.898 454.796C181.076 454.515 181.206 454.189 181.289 453.819C181.372 453.45 181.414 453.054 181.414 452.632ZM186.266 444.765V456.765H184.812V444.765H186.266ZM192.094 456.921C191.505 456.921 190.971 456.822 190.492 456.624C190.018 456.421 189.609 456.137 189.266 455.772C188.927 455.408 188.667 454.976 188.484 454.476C188.302 453.976 188.211 453.429 188.211 452.835V452.507C188.211 451.819 188.312 451.207 188.516 450.671C188.719 450.129 188.995 449.671 189.344 449.296C189.693 448.921 190.089 448.637 190.531 448.444C190.974 448.252 191.432 448.155 191.906 448.155C192.51 448.155 193.031 448.259 193.469 448.468C193.911 448.676 194.273 448.968 194.555 449.343C194.836 449.713 195.044 450.15 195.18 450.655C195.315 451.155 195.383 451.702 195.383 452.296V452.944H189.07V451.765H193.938V451.655C193.917 451.28 193.839 450.916 193.703 450.562C193.573 450.207 193.365 449.916 193.078 449.687C192.792 449.457 192.401 449.343 191.906 449.343C191.578 449.343 191.276 449.413 191 449.554C190.724 449.689 190.487 449.892 190.289 450.163C190.091 450.434 189.938 450.765 189.828 451.155C189.719 451.546 189.664 451.996 189.664 452.507V452.835C189.664 453.236 189.719 453.614 189.828 453.968C189.943 454.317 190.107 454.624 190.32 454.89C190.539 455.155 190.802 455.364 191.109 455.515C191.422 455.666 191.776 455.741 192.172 455.741C192.682 455.741 193.115 455.637 193.469 455.429C193.823 455.22 194.133 454.942 194.398 454.593L195.273 455.288C195.091 455.564 194.859 455.827 194.578 456.077C194.297 456.327 193.951 456.53 193.539 456.687C193.133 456.843 192.651 456.921 192.094 456.921ZM210.008 445.39V456.765H208.492L202.766 447.991V456.765H201.258V445.39H202.766L208.516 454.187V445.39H210.008ZM212.078 452.632V452.452C212.078 451.843 212.167 451.278 212.344 450.757C212.521 450.231 212.776 449.775 213.109 449.39C213.443 448.999 213.846 448.697 214.32 448.483C214.794 448.265 215.326 448.155 215.914 448.155C216.508 448.155 217.042 448.265 217.516 448.483C217.995 448.697 218.401 448.999 218.734 449.39C219.073 449.775 219.331 450.231 219.508 450.757C219.685 451.278 219.773 451.843 219.773 452.452V452.632C219.773 453.241 219.685 453.806 219.508 454.327C219.331 454.848 219.073 455.304 218.734 455.694C218.401 456.08 217.997 456.382 217.523 456.601C217.055 456.814 216.523 456.921 215.93 456.921C215.336 456.921 214.802 456.814 214.328 456.601C213.854 456.382 213.448 456.08 213.109 455.694C212.776 455.304 212.521 454.848 212.344 454.327C212.167 453.806 212.078 453.241 212.078 452.632ZM213.523 452.452V452.632C213.523 453.054 213.573 453.452 213.672 453.827C213.771 454.197 213.919 454.525 214.117 454.812C214.32 455.098 214.573 455.325 214.875 455.491C215.177 455.653 215.529 455.733 215.93 455.733C216.326 455.733 216.672 455.653 216.969 455.491C217.271 455.325 217.521 455.098 217.719 454.812C217.917 454.525 218.065 454.197 218.164 453.827C218.268 453.452 218.32 453.054 218.32 452.632V452.452C218.32 452.035 218.268 451.642 218.164 451.272C218.065 450.897 217.914 450.567 217.711 450.28C217.513 449.989 217.263 449.759 216.961 449.593C216.664 449.426 216.315 449.343 215.914 449.343C215.518 449.343 215.169 449.426 214.867 449.593C214.57 449.759 214.32 449.989 214.117 450.28C213.919 450.567 213.771 450.897 213.672 451.272C213.573 451.642 213.523 452.035 213.523 452.452ZM223.727 455.265L225.898 448.312H226.852L226.664 449.694L224.453 456.765H223.523L223.727 455.265ZM222.266 448.312L224.117 455.343L224.25 456.765H223.273L220.82 448.312H222.266ZM228.93 455.288L230.695 448.312H232.133L229.68 456.765H228.711L228.93 455.288ZM227.062 448.312L229.188 455.147L229.43 456.765H228.508L226.234 449.679L226.047 448.312H227.062Z" fill="white"/>
<path d="M148.156 423.796V427.106H132.79L132.585 424.543L141.477 410.437H144.831L141.198 416.516L136.774 423.796H148.156ZM145.739 410.437V431.765H141.521V410.437H145.739ZM164.797 419.226V422.917C164.797 424.519 164.626 425.9 164.284 427.062C163.942 428.215 163.449 429.162 162.805 429.904C162.17 430.637 161.413 431.179 160.534 431.53C159.655 431.882 158.679 432.058 157.604 432.058C156.745 432.058 155.944 431.95 155.202 431.735C154.46 431.511 153.791 431.164 153.195 430.695C152.609 430.227 152.102 429.636 151.672 428.923C151.252 428.2 150.93 427.341 150.705 426.345C150.48 425.349 150.368 424.206 150.368 422.917V419.226C150.368 417.624 150.539 416.252 150.881 415.109C151.232 413.957 151.726 413.015 152.36 412.282C153.005 411.55 153.767 411.013 154.646 410.671C155.524 410.319 156.501 410.144 157.575 410.144C158.435 410.144 159.23 410.256 159.963 410.48C160.705 410.695 161.374 411.032 161.97 411.491C162.565 411.95 163.073 412.541 163.493 413.264C163.913 413.977 164.235 414.831 164.46 415.827C164.685 416.813 164.797 417.946 164.797 419.226ZM160.563 423.474V418.654C160.563 417.883 160.52 417.209 160.432 416.633C160.354 416.057 160.231 415.568 160.065 415.168C159.899 414.758 159.694 414.426 159.45 414.172C159.206 413.918 158.928 413.732 158.615 413.615C158.303 413.498 157.956 413.439 157.575 413.439C157.097 413.439 156.672 413.532 156.301 413.718C155.939 413.903 155.632 414.201 155.378 414.611C155.124 415.012 154.929 415.549 154.792 416.223C154.665 416.887 154.602 417.697 154.602 418.654V423.474C154.602 424.245 154.641 424.924 154.719 425.51C154.807 426.096 154.934 426.599 155.1 427.019C155.275 427.429 155.48 427.766 155.715 428.029C155.959 428.283 156.237 428.469 156.55 428.586C156.872 428.703 157.224 428.762 157.604 428.762C158.073 428.762 158.488 428.669 158.85 428.483C159.221 428.288 159.533 427.985 159.787 427.575C160.051 427.155 160.246 426.608 160.373 425.935C160.5 425.261 160.563 424.44 160.563 423.474ZM167.609 415.666V414.538C167.609 413.728 167.785 412.99 168.137 412.326C168.488 411.662 169.006 411.13 169.689 410.729C170.373 410.329 171.213 410.129 172.209 410.129C173.234 410.129 174.089 410.329 174.772 410.729C175.466 411.13 175.983 411.662 176.325 412.326C176.677 412.99 176.853 413.728 176.853 414.538V415.666C176.853 416.457 176.677 417.185 176.325 417.849C175.983 418.513 175.471 419.045 174.787 419.445C174.104 419.846 173.259 420.046 172.253 420.046C171.237 420.046 170.383 419.846 169.689 419.445C169.006 419.045 168.488 418.513 168.137 417.849C167.785 417.185 167.609 416.457 167.609 415.666ZM170.407 414.538V415.666C170.407 416.008 170.471 416.335 170.598 416.647C170.734 416.95 170.939 417.199 171.213 417.395C171.496 417.58 171.838 417.673 172.238 417.673C172.658 417.673 173 417.58 173.264 417.395C173.527 417.199 173.723 416.95 173.85 416.647C173.977 416.335 174.04 416.008 174.04 415.666V414.538C174.04 414.177 173.972 413.845 173.835 413.542C173.708 413.229 173.508 412.98 173.234 412.795C172.971 412.6 172.629 412.502 172.209 412.502C171.818 412.502 171.486 412.6 171.213 412.795C170.939 412.98 170.734 413.229 170.598 413.542C170.471 413.845 170.407 414.177 170.407 414.538ZM177.805 427.663V426.535C177.805 425.734 177.98 425.002 178.332 424.338C178.693 423.674 179.216 423.142 179.899 422.741C180.593 422.341 181.442 422.141 182.448 422.141C183.464 422.141 184.313 422.341 184.997 422.741C185.681 423.142 186.198 423.674 186.55 424.338C186.901 425.002 187.077 425.734 187.077 426.535V427.663C187.077 428.464 186.901 429.196 186.55 429.86C186.208 430.524 185.695 431.057 185.012 431.457C184.328 431.857 183.483 432.058 182.478 432.058C181.462 432.058 180.607 431.857 179.914 431.457C179.221 431.057 178.693 430.524 178.332 429.86C177.98 429.196 177.805 428.464 177.805 427.663ZM180.617 426.535V427.663C180.617 428.015 180.695 428.347 180.852 428.659C181.008 428.972 181.223 429.221 181.496 429.406C181.779 429.592 182.106 429.685 182.478 429.685C182.946 429.685 183.312 429.592 183.576 429.406C183.84 429.221 184.021 428.972 184.118 428.659C184.226 428.347 184.279 428.015 184.279 427.663V426.535C184.279 426.184 184.211 425.856 184.074 425.554C183.938 425.241 183.732 424.992 183.459 424.807C183.195 424.611 182.858 424.514 182.448 424.514C182.038 424.514 181.696 424.611 181.423 424.807C181.159 424.992 180.959 425.241 180.822 425.554C180.686 425.856 180.617 426.184 180.617 426.535ZM183.488 413.483L173.073 430.153L171.022 429.069L181.438 412.399L183.488 413.483Z" fill="#39CEF3"/>
<path d="M197.75 421.765H263.191L295.75 383.765" stroke="#CDCDCD" stroke-width="2" stroke-dasharray="10 10"/>
<defs>
<filter id="filter0_d_301_7362" x="7.00879" y="36.5084" width="663.489" height="464.411" filterUnits="userSpaceOnUse" color-interpolation-filters="sRGB">
<feFlood flood-opacity="0" result="BackgroundImageFix"/>
<feColorMatrix in="SourceAlpha" type="matrix" values="0 0 0 0 0 0 0 0 0 0 0 0 0 0 0 0 0 0 127 0" result="hardAlpha"/>
<feOffset dy="4"/>
<feGaussianBlur stdDeviation="47.5"/>
<feComposite in2="hardAlpha" operator="out"/>
<feColorMatrix type="matrix" values="0 0 0 0 0 0 0 0 0 0 0 0 0 0 0 0 0 0 0.08 0"/>
<feBlend mode="normal" in2="BackgroundImageFix" result="effect1_dropShadow_301_7362"/>
<feBlend mode="normal" in="SourceGraphic" in2="effect1_dropShadow_301_7362" result="shape"/>
</filter>
<filter id="filter1_d_301_7362" x="124.119" y="88.4595" width="386.069" height="282.364" filterUnits="userSpaceOnUse" color-interpolation-filters="sRGB">
<feFlood flood-opacity="0" result="BackgroundImageFix"/>
<feColorMatrix in="SourceAlpha" type="matrix" values="0 0 0 0 0 0 0 0 0 0 0 0 0 0 0 0 0 0 127 0" result="hardAlpha"/>
<feOffset dy="4"/>
<feGaussianBlur stdDeviation="18.5"/>
<feComposite in2="hardAlpha" operator="out"/>
<feColorMatrix type="matrix" values="0 0 0 0 0.223529 0 0 0 0 0.807843 0 0 0 0 0.952941 0 0 0 1 0"/>
<feBlend mode="normal" in2="BackgroundImageFix" result="effect1_dropShadow_301_7362"/>
<feBlend mode="normal" in="SourceGraphic" in2="effect1_dropShadow_301_7362" result="shape"/>
</filter>
<linearGradient id="paint0_linear_301_7362" x1="193.443" y1="0" x2="193.443" y2="387" gradientUnits="userSpaceOnUse">
<stop stop-color="#0D3787"/>
<stop offset="1" stop-color="#0D3787" stop-opacity="0.23"/>
</linearGradient>
<linearGradient id="paint1_linear_301_7362" x1="272.974" y1="117.287" x2="287.131" y2="387.421" gradientUnits="userSpaceOnUse">
<stop stop-color="#1B4F9D"/>
<stop offset="0.491787" stop-color="#0359D9" stop-opacity="0.849792"/>
<stop offset="1" stop-color="#2F82FF"/>
</linearGradient>
<clipPath id="clip0_301_7362">
<rect width="349.952" height="350.054" fill="white" transform="matrix(-0.99863 0.052336 0.707107 0.707107 389.747 117.765)"/>
</clipPath>
<clipPath id="clip1_301_7362">
<rect width="349.952" height="350.054" fill="white" transform="matrix(-0.99863 0.052336 0.707107 0.707107 407.747 96.7646)"/>
</clipPath>
</defs>
</svg>
