<svg width="714" height="501" viewBox="0 0 714 501" fill="none" xmlns="http://www.w3.org/2000/svg">
<g filter="url(#filter0_d_301_7362)">
<ellipse cx="182.812" cy="188.243" rx="182.812" ry="188.243" transform="matrix(-0.998465 0.0553796 0.686793 0.726853 379.438 117.765)" fill="url(#paint0_linear_301_7362)" shape-rendering="crispEdges"/>
</g>
<path d="M532.749 321.704C540.289 329.526 555.599 335.633 565.921 334.389C586.404 331.921 603.643 326.693 616.747 318.92C633.828 308.788 643.399 294.619 644.678 277.571C645.956 260.523 638.906 241.081 624.104 220.834C609.301 200.587 587.167 180.11 559.511 161.077C531.854 142.045 499.46 124.997 464.978 111.327C430.496 97.6574 394.905 87.7544 361.114 82.4278C327.323 77.1011 296.292 76.502 270.558 80.6795C250.814 83.8846 234.618 89.8318 222.698 98.1947C216.694 102.408 223.337 111.407 236.027 117.507L282.906 140.041C295.601 146.143 309.466 146.959 316.512 143.34C322.385 140.324 329.562 138.103 337.869 136.754C352.178 134.431 369.432 134.765 388.22 137.726C407.009 140.688 426.798 146.194 445.971 153.795C465.144 161.396 483.156 170.875 498.533 181.457C513.911 192.04 526.218 203.426 534.449 214.683C542.679 225.941 546.599 236.751 545.888 246.23C545.177 255.709 539.855 263.588 530.358 269.221C524.843 272.493 518.012 274.953 510.078 276.551C500.56 278.468 497.356 284.986 504.896 292.808L532.749 321.704Z" fill="#2F82FF" fill-opacity="0.6"/>
<path d="M522.749 340.704C530.289 348.526 545.599 354.633 555.921 353.389C576.404 350.921 593.643 345.693 606.747 337.92C623.828 327.788 633.399 313.619 634.678 296.571C635.956 279.523 628.906 260.081 614.104 239.834C599.301 219.587 577.167 199.11 549.511 180.077C521.854 161.045 489.46 143.997 454.978 130.327C420.496 116.657 384.905 106.754 351.114 101.428C317.323 96.1011 286.292 95.502 260.558 99.6795C240.814 102.885 224.618 108.832 212.698 117.195C206.694 121.408 213.337 130.407 226.027 136.507L272.906 159.041C285.601 165.143 299.466 165.959 306.512 162.34C312.385 159.324 319.562 157.103 327.869 155.754C342.178 153.431 359.432 153.765 378.22 156.726C397.009 159.688 416.798 165.194 435.971 172.795C455.144 180.396 473.156 189.875 488.533 200.457C503.911 211.04 516.218 222.426 524.449 233.683C532.679 244.941 536.599 255.751 535.888 265.23C535.177 274.709 529.855 282.588 520.358 288.221C514.843 291.493 508.012 293.953 500.078 295.551C490.56 297.468 487.356 303.986 494.896 311.808L522.749 340.704Z" fill="#2F82FF" fill-opacity="0.3"/>
<path d="M512.749 360.704C520.289 368.526 535.599 374.633 545.921 373.389C566.404 370.921 583.643 365.693 596.747 357.92C613.828 347.788 623.399 333.619 624.678 316.571C625.956 299.523 618.906 280.081 604.104 259.834C589.301 239.587 567.167 219.11 539.511 200.077C511.854 181.045 479.46 163.997 444.978 150.327C410.496 136.657 374.905 126.754 341.114 121.428C307.323 116.101 276.292 115.502 250.558 119.679C230.814 122.885 214.618 128.832 202.698 137.195C196.694 141.408 203.337 150.407 216.027 156.507L262.906 179.041C275.601 185.143 289.466 185.959 296.512 182.34C302.385 179.324 309.562 177.103 317.869 175.754C332.178 173.431 349.432 173.765 368.22 176.726C387.009 179.688 406.798 185.194 425.971 192.795C445.144 200.396 463.156 209.875 478.533 220.457C493.911 231.04 506.218 242.426 514.449 253.683C522.679 264.941 526.599 275.751 525.888 285.23C525.177 294.709 519.855 302.588 510.358 308.221C504.843 311.493 498.012 313.953 490.078 315.551C480.56 317.468 477.356 323.986 484.896 331.808L512.749 360.704Z" fill="url(#paint1_linear_301_7362)" fill-opacity="0.1"/>
<path d="M549.749 303.704C557.288 311.526 572.599 317.633 582.921 316.389C603.404 313.921 620.643 308.693 633.747 300.92C650.828 290.788 660.399 276.619 661.677 259.571C662.956 242.523 655.906 223.081 641.104 202.834C626.301 182.587 604.167 162.11 576.51 143.077C548.854 124.045 516.46 106.997 481.978 93.327C447.496 79.6574 411.905 69.7544 378.114 64.4278C344.323 59.1011 313.292 58.502 287.558 62.6795C267.814 65.8846 251.618 71.8318 239.698 80.1947C233.693 84.4076 240.337 93.4072 253.027 99.5071L299.906 122.041C312.601 128.143 326.465 128.959 333.512 125.34C339.384 122.324 346.562 120.103 354.869 118.754C369.178 116.431 386.432 116.765 405.22 119.726C424.009 122.688 443.798 128.194 462.971 135.795C482.144 143.396 500.155 152.875 515.533 163.457C530.911 174.04 543.218 185.426 551.448 196.683C559.679 207.941 563.599 218.751 562.888 228.23C562.177 237.709 556.855 245.588 547.358 251.221C541.843 254.493 535.012 256.953 527.078 258.551C517.56 260.468 514.356 266.986 521.896 274.808L549.749 303.704Z" fill="#2F82FF"/>
<g clip-path="url(#clip0_301_7362)">
<path d="M157.94 170.022C144.984 164.233 131.205 163.772 128.859 169.678C122.893 184.697 125.169 202.712 135.657 222.224C148.627 246.354 173.557 271.659 207.213 294.857C240.87 318.055 281.698 338.075 324.401 352.319C358.934 363.837 393.404 371.149 424.886 373.717C437.267 374.727 441.175 368.388 434.37 360.557L411.27 333.974C404.465 326.144 389.512 319.849 376.689 318.133C362.043 316.173 346.509 312.52 330.952 307.331C307.209 299.411 284.507 288.28 265.793 275.381C247.08 262.482 233.218 248.412 226.006 234.995C221.28 226.203 219.554 217.958 220.834 210.703C221.954 204.354 214.854 195.451 201.903 189.665L157.94 170.022Z" fill="#39CEF3" fill-opacity="0.1"/>
</g>
<g clip-path="url(#clip1_301_7362)">
<path d="M175.94 149.022C162.984 143.233 149.205 142.772 146.859 148.678C140.893 163.697 143.169 181.712 153.657 201.224C166.627 225.354 191.557 250.659 225.213 273.857C258.87 297.055 299.698 317.075 342.401 331.319C376.934 342.837 411.404 350.149 442.886 352.717C455.267 353.727 459.175 347.388 452.37 339.557L429.27 312.974C422.465 305.144 407.512 298.849 394.689 297.133C380.043 295.173 364.509 291.52 348.952 286.331C325.209 278.411 302.507 267.28 283.793 254.381C265.08 241.482 251.218 227.412 244.006 213.995C239.28 205.203 237.554 196.958 238.834 189.703C239.954 183.354 232.854 174.451 219.903 168.665L175.94 149.022Z" fill="#39CEF3" fill-opacity="0.4"/>
</g>
<g filter="url(#filter1_d_301_7362)">
<path d="M193.94 126.022C180.984 120.233 167.205 119.772 164.859 125.678C158.893 140.697 161.169 158.712 171.657 178.224C184.627 202.354 209.557 227.659 243.213 250.857C276.87 274.055 317.698 294.075 360.401 308.319C394.934 319.837 429.404 327.149 460.886 329.717C473.267 330.727 477.175 324.388 470.37 316.557L447.27 289.974C440.465 282.144 425.512 275.849 412.689 274.133C398.043 272.173 382.509 268.52 366.952 263.331C343.209 255.411 320.507 244.28 301.793 231.381C283.08 218.482 269.218 204.412 262.006 190.995C257.28 182.203 255.554 173.958 256.834 166.703C257.954 160.354 250.854 151.451 237.903 145.665L193.94 126.022Z" fill="#39CEF3"/>
</g>
<path d="M491.543 14.7646H438.222L415.952 57.7646" stroke="#CDCDCD" stroke-width="2" stroke-dasharray="10 10"/>
<path d="M507.468 39.8713L503.702 50.2385H502.163L506.499 38.8635H507.491L507.468 39.8713ZM510.624 50.2385L506.851 39.8713L506.827 38.8635H507.819L512.171 50.2385H510.624ZM510.429 46.0276V47.262H504.038V46.0276H510.429ZM515.046 38.2385V50.2385H513.593V38.2385H515.046ZM518.812 43.1135V50.2385H517.366V41.7854H518.772L518.812 43.1135ZM521.452 41.7385L521.444 43.0823C521.325 43.0562 521.21 43.0406 521.101 43.0354C520.996 43.025 520.877 43.0198 520.741 43.0198C520.408 43.0198 520.114 43.0719 519.858 43.176C519.603 43.2802 519.387 43.426 519.21 43.6135C519.033 43.801 518.892 44.025 518.788 44.2854C518.689 44.5406 518.624 44.8219 518.593 45.1292L518.187 45.3635C518.187 44.8531 518.236 44.3739 518.335 43.926C518.439 43.4781 518.598 43.0823 518.812 42.7385C519.025 42.3896 519.296 42.1187 519.624 41.926C519.957 41.7281 520.353 41.6292 520.812 41.6292C520.916 41.6292 521.035 41.6422 521.171 41.6682C521.306 41.689 521.4 41.7125 521.452 41.7385ZM526.14 50.3948C525.551 50.3948 525.017 50.2958 524.538 50.0979C524.064 49.8948 523.655 49.6109 523.312 49.2463C522.973 48.8818 522.713 48.4495 522.53 47.9495C522.348 47.4495 522.257 46.9026 522.257 46.3088V45.9807C522.257 45.2932 522.358 44.6812 522.562 44.1448C522.765 43.6031 523.041 43.1448 523.39 42.7698C523.739 42.3948 524.134 42.1109 524.577 41.9182C525.02 41.7255 525.478 41.6292 525.952 41.6292C526.556 41.6292 527.077 41.7333 527.515 41.9417C527.957 42.15 528.319 42.4417 528.601 42.8167C528.882 43.1864 529.09 43.6239 529.226 44.1292C529.361 44.6292 529.429 45.176 529.429 45.7698V46.4182H523.116V45.2385H527.983V45.1292C527.963 44.7542 527.884 44.3896 527.749 44.0354C527.619 43.6812 527.41 43.3896 527.124 43.1604C526.838 42.9312 526.447 42.8167 525.952 42.8167C525.624 42.8167 525.322 42.887 525.046 43.0276C524.77 43.163 524.533 43.3661 524.335 43.637C524.137 43.9078 523.983 44.2385 523.874 44.6292C523.765 45.0198 523.71 45.4703 523.71 45.9807V46.3088C523.71 46.7099 523.765 47.0875 523.874 47.4417C523.989 47.7906 524.153 48.0979 524.366 48.3635C524.585 48.6292 524.848 48.8375 525.155 48.9885C525.468 49.1396 525.822 49.2151 526.218 49.2151C526.728 49.2151 527.16 49.1109 527.515 48.9026C527.869 48.6943 528.179 48.4156 528.444 48.0667L529.319 48.762C529.137 49.038 528.905 49.301 528.624 49.551C528.343 49.801 527.996 50.0042 527.585 50.1604C527.179 50.3167 526.697 50.3948 526.14 50.3948ZM536.101 48.7932V44.4417C536.101 44.1083 536.033 43.8193 535.897 43.5745C535.767 43.3245 535.569 43.1318 535.304 42.9963C535.038 42.8609 534.71 42.7932 534.319 42.7932C533.955 42.7932 533.634 42.8557 533.358 42.9807C533.088 43.1057 532.874 43.2698 532.718 43.4729C532.567 43.676 532.491 43.8948 532.491 44.1292H531.046C531.046 43.8271 531.124 43.5276 531.28 43.2307C531.437 42.9338 531.66 42.6656 531.952 42.426C532.249 42.1812 532.603 41.9885 533.015 41.8479C533.431 41.7021 533.895 41.6292 534.405 41.6292C535.02 41.6292 535.562 41.7333 536.03 41.9417C536.504 42.15 536.874 42.4651 537.14 42.887C537.41 43.3036 537.546 43.8271 537.546 44.4573V48.3948C537.546 48.676 537.569 48.9755 537.616 49.2932C537.668 49.6109 537.744 49.8844 537.843 50.1135V50.2385H536.335C536.262 50.0719 536.205 49.8505 536.163 49.5745C536.121 49.2932 536.101 49.0328 536.101 48.7932ZM536.351 45.1135L536.366 46.1292H534.905C534.494 46.1292 534.127 46.163 533.804 46.2307C533.481 46.2932 533.21 46.3896 532.991 46.5198C532.772 46.65 532.606 46.814 532.491 47.012C532.377 47.2047 532.319 47.4312 532.319 47.6917C532.319 47.9573 532.379 48.1995 532.499 48.4182C532.619 48.637 532.799 48.8114 533.038 48.9417C533.283 49.0667 533.582 49.1292 533.937 49.1292C534.379 49.1292 534.77 49.0354 535.108 48.8479C535.447 48.6604 535.715 48.4312 535.913 48.1604C536.116 47.8896 536.226 47.6265 536.241 47.3713L536.858 48.0667C536.822 48.2854 536.723 48.5276 536.562 48.7932C536.4 49.0588 536.184 49.314 535.913 49.5588C535.647 49.7984 535.33 49.9989 534.96 50.1604C534.595 50.3167 534.184 50.3948 533.726 50.3948C533.153 50.3948 532.65 50.2828 532.218 50.0588C531.791 49.8349 531.457 49.5354 531.218 49.1604C530.983 48.7802 530.866 48.3557 530.866 47.887C530.866 47.4338 530.955 47.0354 531.132 46.6917C531.309 46.3427 531.564 46.0536 531.897 45.8245C532.231 45.5901 532.632 45.413 533.101 45.2932C533.569 45.1734 534.093 45.1135 534.671 45.1135H536.351ZM545.147 48.5979V38.2385H546.601V50.2385H545.272L545.147 48.5979ZM539.46 46.1057V45.9417C539.46 45.2958 539.538 44.7099 539.694 44.1838C539.856 43.6526 540.082 43.1969 540.374 42.8167C540.671 42.4364 541.022 42.1448 541.429 41.9417C541.84 41.7333 542.299 41.6292 542.804 41.6292C543.335 41.6292 543.799 41.7229 544.194 41.9104C544.595 42.0927 544.934 42.3609 545.21 42.7151C545.491 43.064 545.713 43.4859 545.874 43.9807C546.035 44.4755 546.147 45.0354 546.21 45.6604V46.3792C546.153 46.9989 546.041 47.5562 545.874 48.051C545.713 48.5458 545.491 48.9677 545.21 49.3167C544.934 49.6656 544.595 49.9338 544.194 50.1213C543.793 50.3036 543.325 50.3948 542.788 50.3948C542.293 50.3948 541.84 50.288 541.429 50.0745C541.022 49.8609 540.671 49.5614 540.374 49.176C540.082 48.7906 539.856 48.3375 539.694 47.8167C539.538 47.2906 539.46 46.7203 539.46 46.1057ZM540.913 45.9417V46.1057C540.913 46.5276 540.955 46.9234 541.038 47.2932C541.127 47.663 541.262 47.9885 541.444 48.2698C541.627 48.551 541.858 48.7724 542.14 48.9338C542.421 49.0901 542.757 49.1682 543.147 49.1682C543.627 49.1682 544.02 49.0667 544.327 48.8635C544.64 48.6604 544.89 48.3922 545.077 48.0588C545.265 47.7255 545.41 47.3635 545.515 46.9729V45.0901C545.452 44.8036 545.361 44.5276 545.241 44.262C545.127 43.9911 544.976 43.7515 544.788 43.5432C544.606 43.3297 544.379 43.1604 544.108 43.0354C543.843 42.9104 543.528 42.8479 543.163 42.8479C542.767 42.8479 542.426 42.9312 542.14 43.0979C541.858 43.2594 541.627 43.4833 541.444 43.7698C541.262 44.051 541.127 44.3792 541.038 44.7542C540.955 45.1239 540.913 45.5198 540.913 45.9417ZM551.226 49.3635L553.577 41.7854H555.124L551.733 51.5432C551.655 51.7515 551.551 51.9755 551.421 52.2151C551.296 52.4599 551.134 52.6917 550.937 52.9104C550.739 53.1292 550.499 53.3062 550.218 53.4417C549.942 53.5823 549.611 53.6526 549.226 53.6526C549.111 53.6526 548.965 53.637 548.788 53.6057C548.611 53.5745 548.486 53.5484 548.413 53.5276L548.405 52.3557C548.447 52.3609 548.512 52.3661 548.601 52.3713C548.694 52.3818 548.759 52.387 548.796 52.387C549.124 52.387 549.403 52.3427 549.632 52.2542C549.861 52.1708 550.054 52.0276 550.21 51.8245C550.371 51.6265 550.509 51.3531 550.624 51.0042L551.226 49.3635ZM549.499 41.7854L551.694 48.3479L552.069 49.8713L551.03 50.4026L547.921 41.7854H549.499ZM507.452 75.7776H504.413V74.551H507.452C508.041 74.551 508.517 74.4573 508.882 74.2698C509.246 74.0823 509.512 73.8219 509.679 73.4885C509.851 73.1552 509.937 72.775 509.937 72.3479C509.937 71.9573 509.851 71.5901 509.679 71.2463C509.512 70.9026 509.246 70.6265 508.882 70.4182C508.517 70.2047 508.041 70.0979 507.452 70.0979H504.765V80.2385H503.257V68.8635H507.452C508.312 68.8635 509.038 69.012 509.632 69.3088C510.226 69.6057 510.676 70.0172 510.983 70.5432C511.291 71.064 511.444 71.6604 511.444 72.3323C511.444 73.0614 511.291 73.6838 510.983 74.1995C510.676 74.7151 510.226 75.1083 509.632 75.3792C509.038 75.6448 508.312 75.7776 507.452 75.7776ZM518.304 78.2854V71.7854H519.757V80.2385H518.374L518.304 78.2854ZM518.577 76.5042L519.179 76.4885C519.179 77.051 519.119 77.5719 518.999 78.051C518.884 78.525 518.697 78.9364 518.437 79.2854C518.176 79.6344 517.835 79.9078 517.413 80.1057C516.991 80.2984 516.478 80.3948 515.874 80.3948C515.463 80.3948 515.085 80.3349 514.741 80.2151C514.403 80.0953 514.111 79.9104 513.866 79.6604C513.621 79.4104 513.431 79.0849 513.296 78.6838C513.166 78.2828 513.101 77.801 513.101 77.2385V71.7854H514.546V77.2542C514.546 77.6344 514.588 77.9495 514.671 78.1995C514.759 78.4443 514.877 78.6396 515.022 78.7854C515.174 78.926 515.34 79.025 515.522 79.0823C515.71 79.1396 515.903 79.1682 516.101 79.1682C516.715 79.1682 517.202 79.051 517.562 78.8167C517.921 78.5771 518.179 78.2568 518.335 77.8557C518.496 77.4495 518.577 76.9989 518.577 76.5042ZM523.405 73.1135V80.2385H521.96V71.7854H523.366L523.405 73.1135ZM526.046 71.7385L526.038 73.0823C525.918 73.0562 525.804 73.0406 525.694 73.0354C525.59 73.025 525.47 73.0198 525.335 73.0198C525.002 73.0198 524.707 73.0719 524.452 73.176C524.197 73.2802 523.981 73.426 523.804 73.6135C523.627 73.801 523.486 74.025 523.382 74.2854C523.283 74.5406 523.218 74.8219 523.187 75.1292L522.78 75.3635C522.78 74.8531 522.83 74.3739 522.929 73.926C523.033 73.4781 523.192 73.0823 523.405 72.7385C523.619 72.3896 523.89 72.1187 524.218 71.926C524.551 71.7281 524.947 71.6292 525.405 71.6292C525.509 71.6292 525.629 71.6422 525.765 71.6682C525.9 71.689 525.994 71.7125 526.046 71.7385ZM530.608 79.2073C530.952 79.2073 531.27 79.137 531.562 78.9963C531.853 78.8557 532.093 78.663 532.28 78.4182C532.468 78.1682 532.575 77.8844 532.601 77.5667H533.976C533.95 78.0667 533.78 78.5328 533.468 78.9651C533.16 79.3922 532.757 79.7385 532.257 80.0042C531.757 80.2646 531.207 80.3948 530.608 80.3948C529.973 80.3948 529.418 80.2828 528.944 80.0588C528.476 79.8349 528.085 79.5276 527.772 79.137C527.465 78.7463 527.233 78.2984 527.077 77.7932C526.926 77.2828 526.851 76.7437 526.851 76.176V75.8479C526.851 75.2802 526.926 74.7437 527.077 74.2385C527.233 73.7281 527.465 73.2776 527.772 72.887C528.085 72.4963 528.476 72.189 528.944 71.9651C529.418 71.7411 529.973 71.6292 530.608 71.6292C531.27 71.6292 531.848 71.7646 532.343 72.0354C532.838 72.301 533.226 72.6656 533.507 73.1292C533.793 73.5875 533.95 74.1083 533.976 74.6917H532.601C532.575 74.3427 532.476 74.0276 532.304 73.7463C532.137 73.4651 531.908 73.2411 531.616 73.0745C531.33 72.9026 530.994 72.8167 530.608 72.8167C530.166 72.8167 529.793 72.9052 529.491 73.0823C529.194 73.2542 528.957 73.4885 528.78 73.7854C528.608 74.0771 528.483 74.4026 528.405 74.762C528.332 75.1161 528.296 75.4781 528.296 75.8479V76.176C528.296 76.5458 528.332 76.9104 528.405 77.2698C528.478 77.6292 528.601 77.9547 528.772 78.2463C528.95 78.538 529.187 78.7724 529.483 78.9495C529.785 79.1213 530.16 79.2073 530.608 79.2073ZM537.046 68.2385V80.2385H535.601V68.2385H537.046ZM536.702 75.6917L536.101 75.6682C536.106 75.0901 536.192 74.5562 536.358 74.0667C536.525 73.5719 536.759 73.1422 537.062 72.7776C537.364 72.413 537.723 72.1318 538.14 71.9338C538.562 71.7307 539.028 71.6292 539.538 71.6292C539.955 71.6292 540.33 71.6864 540.663 71.801C540.996 71.9104 541.28 72.0875 541.515 72.3323C541.754 72.5771 541.937 72.8948 542.062 73.2854C542.187 73.6708 542.249 74.1422 542.249 74.6995V80.2385H540.796V74.6838C540.796 74.2411 540.731 73.887 540.601 73.6213C540.47 73.3505 540.28 73.1552 540.03 73.0354C539.78 72.9104 539.473 72.8479 539.108 72.8479C538.749 72.8479 538.421 72.9234 538.124 73.0745C537.832 73.2255 537.58 73.4338 537.366 73.6995C537.158 73.9651 536.994 74.2698 536.874 74.6135C536.759 74.9521 536.702 75.3114 536.702 75.6917ZM549.397 78.7932V74.4417C549.397 74.1083 549.33 73.8193 549.194 73.5745C549.064 73.3245 548.866 73.1318 548.601 72.9963C548.335 72.8609 548.007 72.7932 547.616 72.7932C547.252 72.7932 546.931 72.8557 546.655 72.9807C546.384 73.1057 546.171 73.2698 546.015 73.4729C545.864 73.676 545.788 73.8948 545.788 74.1292H544.343C544.343 73.8271 544.421 73.5276 544.577 73.2307C544.733 72.9338 544.957 72.6656 545.249 72.426C545.546 72.1812 545.9 71.9885 546.312 71.8479C546.728 71.7021 547.192 71.6292 547.702 71.6292C548.317 71.6292 548.858 71.7333 549.327 71.9417C549.801 72.15 550.171 72.4651 550.437 72.887C550.707 73.3036 550.843 73.8271 550.843 74.4573V78.3948C550.843 78.676 550.866 78.9755 550.913 79.2932C550.965 79.6109 551.041 79.8844 551.14 80.1135V80.2385H549.632C549.559 80.0719 549.502 79.8505 549.46 79.5745C549.418 79.2932 549.397 79.0328 549.397 78.7932ZM549.647 75.1135L549.663 76.1292H548.202C547.791 76.1292 547.424 76.163 547.101 76.2307C546.778 76.2932 546.507 76.3896 546.288 76.5198C546.069 76.65 545.903 76.814 545.788 77.012C545.674 77.2047 545.616 77.4312 545.616 77.6917C545.616 77.9573 545.676 78.1995 545.796 78.4182C545.916 78.637 546.095 78.8114 546.335 78.9417C546.58 79.0667 546.879 79.1292 547.233 79.1292C547.676 79.1292 548.067 79.0354 548.405 78.8479C548.744 78.6604 549.012 78.4312 549.21 78.1604C549.413 77.8896 549.522 77.6265 549.538 77.3713L550.155 78.0667C550.119 78.2854 550.02 78.5276 549.858 78.7932C549.697 79.0588 549.481 79.314 549.21 79.5588C548.944 79.7984 548.627 79.9989 548.257 80.1604C547.892 80.3167 547.481 80.3948 547.022 80.3948C546.45 80.3948 545.947 80.2828 545.515 80.0588C545.088 79.8349 544.754 79.5354 544.515 79.1604C544.28 78.7802 544.163 78.3557 544.163 77.887C544.163 77.4338 544.252 77.0354 544.429 76.6917C544.606 76.3427 544.861 76.0536 545.194 75.8245C545.528 75.5901 545.929 75.413 546.397 75.2932C546.866 75.1734 547.39 75.1135 547.968 75.1135H549.647ZM558.038 77.9963C558.038 77.788 557.991 77.5953 557.897 77.4182C557.809 77.2359 557.624 77.0719 557.343 76.926C557.067 76.775 556.65 76.6448 556.093 76.5354C555.624 76.4364 555.2 76.3193 554.819 76.1838C554.444 76.0484 554.124 75.8844 553.858 75.6917C553.598 75.4989 553.397 75.2724 553.257 75.012C553.116 74.7515 553.046 74.4469 553.046 74.0979C553.046 73.7646 553.119 73.4495 553.265 73.1526C553.416 72.8557 553.627 72.5927 553.897 72.3635C554.174 72.1344 554.504 71.9547 554.89 71.8245C555.275 71.6943 555.705 71.6292 556.179 71.6292C556.856 71.6292 557.434 71.7489 557.913 71.9885C558.392 72.2281 558.759 72.5484 559.015 72.9495C559.27 73.3453 559.397 73.7854 559.397 74.2698H557.952C557.952 74.0354 557.882 73.8088 557.741 73.5901C557.606 73.3661 557.405 73.1812 557.14 73.0354C556.879 72.8896 556.559 72.8167 556.179 72.8167C555.778 72.8167 555.452 72.8792 555.202 73.0042C554.957 73.1239 554.778 73.2776 554.663 73.4651C554.554 73.6526 554.499 73.8505 554.499 74.0588C554.499 74.2151 554.525 74.3557 554.577 74.4807C554.634 74.6005 554.733 74.7125 554.874 74.8167C555.015 74.9156 555.213 75.0094 555.468 75.0979C555.723 75.1864 556.049 75.275 556.444 75.3635C557.137 75.5198 557.707 75.7073 558.155 75.926C558.603 76.1448 558.937 76.413 559.155 76.7307C559.374 77.0484 559.483 77.4338 559.483 77.887C559.483 78.2568 559.405 78.5953 559.249 78.9026C559.098 79.2099 558.877 79.4755 558.585 79.6995C558.299 79.9182 557.955 80.0901 557.554 80.2151C557.158 80.3349 556.713 80.3948 556.218 80.3948C555.473 80.3948 554.843 80.262 554.327 79.9963C553.812 79.7307 553.421 79.387 553.155 78.9651C552.89 78.5432 552.757 78.0979 552.757 77.6292H554.21C554.231 78.025 554.345 78.3401 554.554 78.5745C554.762 78.8036 555.017 78.9677 555.319 79.0667C555.621 79.1604 555.921 79.2073 556.218 79.2073C556.614 79.2073 556.944 79.1552 557.21 79.051C557.481 78.9469 557.687 78.8036 557.827 78.6213C557.968 78.439 558.038 78.2307 558.038 77.9963ZM564.89 80.3948C564.301 80.3948 563.767 80.2958 563.288 80.0979C562.814 79.8948 562.405 79.6109 562.062 79.2463C561.723 78.8818 561.463 78.4495 561.28 77.9495C561.098 77.4495 561.007 76.9026 561.007 76.3088V75.9807C561.007 75.2932 561.108 74.6812 561.312 74.1448C561.515 73.6031 561.791 73.1448 562.14 72.7698C562.489 72.3948 562.884 72.1109 563.327 71.9182C563.77 71.7255 564.228 71.6292 564.702 71.6292C565.306 71.6292 565.827 71.7333 566.265 71.9417C566.707 72.15 567.069 72.4417 567.351 72.8167C567.632 73.1864 567.84 73.6239 567.976 74.1292C568.111 74.6292 568.179 75.176 568.179 75.7698V76.4182H561.866V75.2385H566.733V75.1292C566.713 74.7542 566.634 74.3896 566.499 74.0354C566.369 73.6812 566.16 73.3896 565.874 73.1604C565.588 72.9312 565.197 72.8167 564.702 72.8167C564.374 72.8167 564.072 72.887 563.796 73.0276C563.52 73.163 563.283 73.3661 563.085 73.637C562.887 73.9078 562.733 74.2385 562.624 74.6292C562.515 75.0198 562.46 75.4703 562.46 75.9807V76.3088C562.46 76.7099 562.515 77.0875 562.624 77.4417C562.739 77.7906 562.903 78.0979 563.116 78.3635C563.335 78.6292 563.598 78.8375 563.905 78.9885C564.218 79.1396 564.572 79.2151 564.968 79.2151C565.478 79.2151 565.91 79.1109 566.265 78.9026C566.619 78.6943 566.929 78.4156 567.194 78.0667L568.069 78.762C567.887 79.038 567.655 79.301 567.374 79.551C567.093 79.801 566.746 80.0042 566.335 80.1604C565.929 80.3167 565.447 80.3948 564.89 80.3948ZM575.194 78.5979V68.2385H576.647V80.2385H575.319L575.194 78.5979ZM569.507 76.1057V75.9417C569.507 75.2958 569.585 74.7099 569.741 74.1838C569.903 73.6526 570.129 73.1969 570.421 72.8167C570.718 72.4364 571.069 72.1448 571.476 71.9417C571.887 71.7333 572.345 71.6292 572.851 71.6292C573.382 71.6292 573.845 71.7229 574.241 71.9104C574.642 72.0927 574.981 72.3609 575.257 72.7151C575.538 73.064 575.759 73.4859 575.921 73.9807C576.082 74.4755 576.194 75.0354 576.257 75.6604V76.3792C576.2 76.9989 576.088 77.5562 575.921 78.051C575.759 78.5458 575.538 78.9677 575.257 79.3167C574.981 79.6656 574.642 79.9338 574.241 80.1213C573.84 80.3036 573.371 80.3948 572.835 80.3948C572.34 80.3948 571.887 80.288 571.476 80.0745C571.069 79.8609 570.718 79.5614 570.421 79.176C570.129 78.7906 569.903 78.3375 569.741 77.8167C569.585 77.2906 569.507 76.7203 569.507 76.1057ZM570.96 75.9417V76.1057C570.96 76.5276 571.002 76.9234 571.085 77.2932C571.174 77.663 571.309 77.9885 571.491 78.2698C571.674 78.551 571.905 78.7724 572.187 78.9338C572.468 79.0901 572.804 79.1682 573.194 79.1682C573.674 79.1682 574.067 79.0667 574.374 78.8635C574.687 78.6604 574.937 78.3922 575.124 78.0588C575.312 77.7255 575.457 77.3635 575.562 76.9729V75.0901C575.499 74.8036 575.408 74.5276 575.288 74.262C575.174 73.9911 575.022 73.7515 574.835 73.5432C574.653 73.3297 574.426 73.1604 574.155 73.0354C573.89 72.9104 573.575 72.8479 573.21 72.8479C572.814 72.8479 572.473 72.9312 572.187 73.0979C571.905 73.2594 571.674 73.4833 571.491 73.7698C571.309 74.051 571.174 74.3792 571.085 74.7542C571.002 75.1239 570.96 75.5198 570.96 75.9417Z" fill="white"/>
<path d="M507.371 16.0527L504.002 15.2471L505.218 4.43652H517.2V7.84961H508.689L508.162 12.5811C508.445 12.415 508.875 12.2393 509.451 12.0537C510.027 11.8584 510.672 11.7607 511.385 11.7607C512.42 11.7607 513.338 11.9219 514.139 12.2441C514.939 12.5664 515.618 13.0352 516.175 13.6504C516.741 14.2656 517.171 15.0176 517.464 15.9062C517.757 16.7949 517.903 17.8008 517.903 18.9238C517.903 19.8711 517.757 20.7744 517.464 21.6338C517.171 22.4834 516.727 23.2451 516.131 23.9189C515.535 24.583 514.788 25.1055 513.89 25.4863C512.991 25.8672 511.927 26.0576 510.696 26.0576C509.778 26.0576 508.89 25.9209 508.03 25.6475C507.181 25.374 506.414 24.9688 505.73 24.4316C505.057 23.8945 504.515 23.2451 504.104 22.4834C503.704 21.7119 503.494 20.833 503.475 19.8467H507.664C507.723 20.4521 507.879 20.9746 508.133 21.4141C508.396 21.8438 508.743 22.1758 509.173 22.4102C509.603 22.6445 510.105 22.7617 510.682 22.7617C511.219 22.7617 511.678 22.6592 512.059 22.4541C512.439 22.249 512.747 21.9658 512.981 21.6045C513.216 21.2334 513.387 20.8037 513.494 20.3154C513.611 19.8174 513.67 19.2803 513.67 18.7041C513.67 18.1279 513.602 17.6055 513.465 17.1367C513.328 16.668 513.118 16.2627 512.835 15.9209C512.552 15.5791 512.19 15.3154 511.751 15.1299C511.321 14.9443 510.818 14.8516 510.242 14.8516C509.461 14.8516 508.855 14.9736 508.426 15.2178C508.006 15.4619 507.654 15.7402 507.371 16.0527ZM534.998 19.9199C534.998 21.2578 534.686 22.3857 534.061 23.3037C533.436 24.2119 532.576 24.9004 531.482 25.3691C530.398 25.8281 529.168 26.0576 527.791 26.0576C526.414 26.0576 525.179 25.8281 524.085 25.3691C522.991 24.9004 522.127 24.2119 521.492 23.3037C520.857 22.3857 520.54 21.2578 520.54 19.9199C520.54 19.0215 520.721 18.2109 521.082 17.4883C521.443 16.7559 521.946 16.1309 522.591 15.6133C523.245 15.0859 524.012 14.6855 524.891 14.4121C525.77 14.1289 526.727 13.9873 527.762 13.9873C529.148 13.9873 530.389 14.2314 531.482 14.7197C532.576 15.208 533.436 15.8965 534.061 16.7852C534.686 17.6738 534.998 18.7188 534.998 19.9199ZM530.75 19.6416C530.75 18.9873 530.623 18.4258 530.369 17.957C530.125 17.4785 529.778 17.1123 529.329 16.8584C528.88 16.6045 528.357 16.4775 527.762 16.4775C527.166 16.4775 526.644 16.6045 526.194 16.8584C525.745 17.1123 525.394 17.4785 525.14 17.957C524.896 18.4258 524.773 18.9873 524.773 19.6416C524.773 20.2861 524.896 20.8428 525.14 21.3115C525.394 21.7803 525.745 22.1416 526.194 22.3955C526.653 22.6396 527.186 22.7617 527.791 22.7617C528.396 22.7617 528.919 22.6396 529.358 22.3955C529.808 22.1416 530.149 21.7803 530.384 21.3115C530.628 20.8428 530.75 20.2861 530.75 19.6416ZM534.544 10.0908C534.544 11.1748 534.256 12.1367 533.68 12.9766C533.104 13.8066 532.303 14.4561 531.277 14.9248C530.262 15.3936 529.1 15.6279 527.791 15.6279C526.473 15.6279 525.301 15.3936 524.275 14.9248C523.25 14.4561 522.449 13.8066 521.873 12.9766C521.297 12.1367 521.009 11.1748 521.009 10.0908C521.009 8.80176 521.297 7.71777 521.873 6.83887C522.459 5.9502 523.26 5.27637 524.275 4.81738C525.301 4.3584 526.463 4.12891 527.762 4.12891C529.08 4.12891 530.247 4.3584 531.263 4.81738C532.288 5.27637 533.089 5.9502 533.665 6.83887C534.251 7.71777 534.544 8.80176 534.544 10.0908ZM530.325 10.2812C530.325 9.70508 530.223 9.20703 530.018 8.78711C529.812 8.35742 529.52 8.02539 529.139 7.79102C528.768 7.55664 528.309 7.43945 527.762 7.43945C527.234 7.43945 526.78 7.55176 526.399 7.77637C526.028 8.00098 525.74 8.32812 525.535 8.75781C525.34 9.17773 525.242 9.68555 525.242 10.2812C525.242 10.8574 525.34 11.3652 525.535 11.8047C525.74 12.2344 526.033 12.5713 526.414 12.8154C526.795 13.0596 527.254 13.1816 527.791 13.1816C528.328 13.1816 528.782 13.0596 529.153 12.8154C529.534 12.5713 529.822 12.2344 530.018 11.8047C530.223 11.3652 530.325 10.8574 530.325 10.2812ZM503.343 39.666V38.5381C503.343 37.7275 503.519 36.9902 503.87 36.3262C504.222 35.6621 504.739 35.1299 505.423 34.7295C506.106 34.3291 506.946 34.1289 507.942 34.1289C508.968 34.1289 509.822 34.3291 510.506 34.7295C511.199 35.1299 511.717 35.6621 512.059 36.3262C512.41 36.9902 512.586 37.7275 512.586 38.5381V39.666C512.586 40.457 512.41 41.1846 512.059 41.8486C511.717 42.5127 511.204 43.0449 510.521 43.4453C509.837 43.8457 508.992 44.0459 507.986 44.0459C506.971 44.0459 506.116 43.8457 505.423 43.4453C504.739 43.0449 504.222 42.5127 503.87 41.8486C503.519 41.1846 503.343 40.457 503.343 39.666ZM506.141 38.5381V39.666C506.141 40.0078 506.204 40.335 506.331 40.6475C506.468 40.9502 506.673 41.1992 506.946 41.3945C507.229 41.5801 507.571 41.6729 507.972 41.6729C508.392 41.6729 508.733 41.5801 508.997 41.3945C509.261 41.1992 509.456 40.9502 509.583 40.6475C509.71 40.335 509.773 40.0078 509.773 39.666V38.5381C509.773 38.1768 509.705 37.8447 509.568 37.542C509.441 37.2295 509.241 36.9805 508.968 36.7949C508.704 36.5996 508.362 36.502 507.942 36.502C507.552 36.502 507.22 36.5996 506.946 36.7949C506.673 36.9805 506.468 37.2295 506.331 37.542C506.204 37.8447 506.141 38.1768 506.141 38.5381ZM513.538 51.6631V50.5352C513.538 49.7344 513.714 49.002 514.065 48.3379C514.427 47.6738 514.949 47.1416 515.633 46.7412C516.326 46.3408 517.176 46.1406 518.182 46.1406C519.197 46.1406 520.047 46.3408 520.73 46.7412C521.414 47.1416 521.932 47.6738 522.283 48.3379C522.635 49.002 522.811 49.7344 522.811 50.5352V51.6631C522.811 52.4639 522.635 53.1963 522.283 53.8604C521.941 54.5244 521.429 55.0566 520.745 55.457C520.062 55.8574 519.217 56.0576 518.211 56.0576C517.195 56.0576 516.341 55.8574 515.647 55.457C514.954 55.0566 514.427 54.5244 514.065 53.8604C513.714 53.1963 513.538 52.4639 513.538 51.6631ZM516.351 50.5352V51.6631C516.351 52.0146 516.429 52.3467 516.585 52.6592C516.741 52.9717 516.956 53.2207 517.229 53.4062C517.513 53.5918 517.84 53.6846 518.211 53.6846C518.68 53.6846 519.046 53.5918 519.31 53.4062C519.573 53.2207 519.754 52.9717 519.852 52.6592C519.959 52.3467 520.013 52.0146 520.013 51.6631V50.5352C520.013 50.1836 519.944 49.8564 519.808 49.5537C519.671 49.2412 519.466 48.9922 519.192 48.8066C518.929 48.6113 518.592 48.5137 518.182 48.5137C517.771 48.5137 517.43 48.6113 517.156 48.8066C516.893 48.9922 516.692 49.2412 516.556 49.5537C516.419 49.8564 516.351 50.1836 516.351 50.5352ZM519.222 37.4834L508.807 54.1533L506.756 53.0693L517.171 36.3994L519.222 37.4834Z" fill="#39CEF3"/>
<path d="M136.128 446.397L132.362 456.765H130.823L135.159 445.39H136.151L136.128 446.397ZM139.284 456.765L135.511 446.397L135.487 445.39H136.479L140.831 456.765H139.284ZM139.089 452.554V453.788H132.698V452.554H139.089ZM144.315 455.46L146.628 448.312H148.104L145.065 456.765H144.097L144.315 455.46ZM142.386 448.312L144.769 455.499L144.933 456.765H143.964L140.901 448.312H142.386ZM154.354 455.319V450.968C154.354 450.634 154.287 450.345 154.151 450.101C154.021 449.851 153.823 449.658 153.558 449.522C153.292 449.387 152.964 449.319 152.573 449.319C152.209 449.319 151.888 449.382 151.612 449.507C151.341 449.632 151.128 449.796 150.972 449.999C150.821 450.202 150.745 450.421 150.745 450.655H149.3C149.3 450.353 149.378 450.054 149.534 449.757C149.69 449.46 149.914 449.192 150.206 448.952C150.503 448.707 150.857 448.515 151.269 448.374C151.685 448.228 152.149 448.155 152.659 448.155C153.274 448.155 153.815 448.259 154.284 448.468C154.758 448.676 155.128 448.991 155.394 449.413C155.664 449.83 155.8 450.353 155.8 450.983V454.921C155.8 455.202 155.823 455.502 155.87 455.819C155.922 456.137 155.998 456.41 156.097 456.64V456.765H154.589C154.516 456.598 154.459 456.377 154.417 456.101C154.375 455.819 154.354 455.559 154.354 455.319ZM154.604 451.64L154.62 452.655H153.159C152.748 452.655 152.381 452.689 152.058 452.757C151.735 452.819 151.464 452.916 151.245 453.046C151.026 453.176 150.86 453.34 150.745 453.538C150.631 453.731 150.573 453.957 150.573 454.218C150.573 454.483 150.633 454.726 150.753 454.944C150.873 455.163 151.052 455.338 151.292 455.468C151.537 455.593 151.836 455.655 152.19 455.655C152.633 455.655 153.024 455.562 153.362 455.374C153.701 455.187 153.969 454.957 154.167 454.687C154.37 454.416 154.479 454.153 154.495 453.897L155.112 454.593C155.076 454.812 154.977 455.054 154.815 455.319C154.654 455.585 154.438 455.84 154.167 456.085C153.901 456.325 153.584 456.525 153.214 456.687C152.849 456.843 152.438 456.921 151.979 456.921C151.407 456.921 150.904 456.809 150.472 456.585C150.045 456.361 149.711 456.062 149.472 455.687C149.237 455.306 149.12 454.882 149.12 454.413C149.12 453.96 149.209 453.562 149.386 453.218C149.563 452.869 149.818 452.58 150.151 452.351C150.485 452.116 150.886 451.939 151.354 451.819C151.823 451.7 152.347 451.64 152.925 451.64H154.604ZM159.644 448.312V456.765H158.19V448.312H159.644ZM158.081 446.069C158.081 445.835 158.151 445.637 158.292 445.476C158.438 445.314 158.651 445.233 158.933 445.233C159.209 445.233 159.42 445.314 159.565 445.476C159.716 445.637 159.792 445.835 159.792 446.069C159.792 446.293 159.716 446.486 159.565 446.647C159.42 446.804 159.209 446.882 158.933 446.882C158.651 446.882 158.438 446.804 158.292 446.647C158.151 446.486 158.081 446.293 158.081 446.069ZM163.534 444.765V456.765H162.081V444.765H163.534ZM170.839 455.319V450.968C170.839 450.634 170.771 450.345 170.636 450.101C170.506 449.851 170.308 449.658 170.042 449.522C169.776 449.387 169.448 449.319 169.058 449.319C168.693 449.319 168.373 449.382 168.097 449.507C167.826 449.632 167.612 449.796 167.456 449.999C167.305 450.202 167.229 450.421 167.229 450.655H165.784C165.784 450.353 165.862 450.054 166.019 449.757C166.175 449.46 166.399 449.192 166.69 448.952C166.987 448.707 167.341 448.515 167.753 448.374C168.17 448.228 168.633 448.155 169.144 448.155C169.758 448.155 170.3 448.259 170.769 448.468C171.243 448.676 171.612 448.991 171.878 449.413C172.149 449.83 172.284 450.353 172.284 450.983V454.921C172.284 455.202 172.308 455.502 172.354 455.819C172.407 456.137 172.482 456.41 172.581 456.64V456.765H171.073C171 456.598 170.943 456.377 170.901 456.101C170.86 455.819 170.839 455.559 170.839 455.319ZM171.089 451.64L171.104 452.655H169.644C169.232 452.655 168.865 452.689 168.542 452.757C168.219 452.819 167.948 452.916 167.729 453.046C167.511 453.176 167.344 453.34 167.229 453.538C167.115 453.731 167.058 453.957 167.058 454.218C167.058 454.483 167.118 454.726 167.237 454.944C167.357 455.163 167.537 455.338 167.776 455.468C168.021 455.593 168.321 455.655 168.675 455.655C169.118 455.655 169.508 455.562 169.847 455.374C170.185 455.187 170.453 454.957 170.651 454.687C170.854 454.416 170.964 454.153 170.979 453.897L171.597 454.593C171.56 454.812 171.461 455.054 171.3 455.319C171.138 455.585 170.922 455.84 170.651 456.085C170.386 456.325 170.068 456.525 169.698 456.687C169.334 456.843 168.922 456.921 168.464 456.921C167.891 456.921 167.388 456.809 166.956 456.585C166.529 456.361 166.196 456.062 165.956 455.687C165.722 455.306 165.604 454.882 165.604 454.413C165.604 453.96 165.693 453.562 165.87 453.218C166.047 452.869 166.302 452.58 166.636 452.351C166.969 452.116 167.37 451.939 167.839 451.819C168.308 451.7 168.831 451.64 169.409 451.64H171.089ZM174.55 444.765H176.003V455.124L175.878 456.765H174.55V444.765ZM181.714 452.468V452.632C181.714 453.246 181.641 453.817 181.495 454.343C181.349 454.864 181.136 455.317 180.854 455.702C180.573 456.088 180.229 456.387 179.823 456.601C179.417 456.814 178.951 456.921 178.425 456.921C177.888 456.921 177.417 456.83 177.011 456.647C176.61 456.46 176.271 456.192 175.995 455.843C175.719 455.494 175.498 455.072 175.331 454.577C175.17 454.082 175.058 453.525 174.995 452.905V452.187C175.058 451.562 175.17 451.002 175.331 450.507C175.498 450.012 175.719 449.59 175.995 449.241C176.271 448.887 176.61 448.619 177.011 448.437C177.412 448.249 177.878 448.155 178.409 448.155C178.94 448.155 179.412 448.259 179.823 448.468C180.235 448.671 180.578 448.963 180.854 449.343C181.136 449.723 181.349 450.179 181.495 450.71C181.641 451.236 181.714 451.822 181.714 452.468ZM180.261 452.632V452.468C180.261 452.046 180.222 451.65 180.144 451.28C180.065 450.905 179.94 450.577 179.769 450.296C179.597 450.009 179.37 449.785 179.089 449.624C178.808 449.457 178.461 449.374 178.05 449.374C177.685 449.374 177.368 449.437 177.097 449.562C176.831 449.687 176.604 449.856 176.417 450.069C176.229 450.278 176.076 450.517 175.956 450.788C175.841 451.054 175.756 451.33 175.698 451.616V453.499C175.782 453.864 175.917 454.215 176.104 454.554C176.297 454.887 176.552 455.16 176.87 455.374C177.193 455.588 177.591 455.694 178.065 455.694C178.456 455.694 178.789 455.616 179.065 455.46C179.347 455.299 179.573 455.077 179.745 454.796C179.922 454.515 180.052 454.189 180.136 453.819C180.219 453.45 180.261 453.054 180.261 452.632ZM185.112 444.765V456.765H183.659V444.765H185.112ZM190.94 456.921C190.352 456.921 189.818 456.822 189.339 456.624C188.865 456.421 188.456 456.137 188.112 455.772C187.774 455.408 187.513 454.976 187.331 454.476C187.149 453.976 187.058 453.429 187.058 452.835V452.507C187.058 451.819 187.159 451.207 187.362 450.671C187.565 450.129 187.841 449.671 188.19 449.296C188.539 448.921 188.935 448.637 189.378 448.444C189.821 448.252 190.279 448.155 190.753 448.155C191.357 448.155 191.878 448.259 192.315 448.468C192.758 448.676 193.12 448.968 193.401 449.343C193.683 449.713 193.891 450.15 194.026 450.655C194.162 451.155 194.229 451.702 194.229 452.296V452.944H187.917V451.765H192.784V451.655C192.763 451.28 192.685 450.916 192.55 450.562C192.42 450.207 192.211 449.916 191.925 449.687C191.638 449.457 191.248 449.343 190.753 449.343C190.425 449.343 190.123 449.413 189.847 449.554C189.571 449.689 189.334 449.892 189.136 450.163C188.938 450.434 188.784 450.765 188.675 451.155C188.565 451.546 188.511 451.996 188.511 452.507V452.835C188.511 453.236 188.565 453.614 188.675 453.968C188.789 454.317 188.953 454.624 189.167 454.89C189.386 455.155 189.649 455.364 189.956 455.515C190.269 455.666 190.623 455.741 191.019 455.741C191.529 455.741 191.961 455.637 192.315 455.429C192.67 455.22 192.979 454.942 193.245 454.593L194.12 455.288C193.938 455.564 193.706 455.827 193.425 456.077C193.144 456.327 192.797 456.53 192.386 456.687C191.979 456.843 191.498 456.921 190.94 456.921ZM140.667 475.39V486.765H139.151L133.425 477.991V486.765H131.917V475.39H133.425L139.175 484.187V475.39H140.667ZM142.737 482.632V482.452C142.737 481.843 142.826 481.278 143.003 480.757C143.18 480.231 143.435 479.775 143.769 479.39C144.102 478.999 144.506 478.697 144.979 478.483C145.453 478.265 145.985 478.155 146.573 478.155C147.167 478.155 147.701 478.265 148.175 478.483C148.654 478.697 149.06 478.999 149.394 479.39C149.732 479.775 149.99 480.231 150.167 480.757C150.344 481.278 150.433 481.843 150.433 482.452V482.632C150.433 483.241 150.344 483.806 150.167 484.327C149.99 484.848 149.732 485.304 149.394 485.694C149.06 486.08 148.657 486.382 148.183 486.601C147.714 486.814 147.183 486.921 146.589 486.921C145.995 486.921 145.461 486.814 144.987 486.601C144.513 486.382 144.107 486.08 143.769 485.694C143.435 485.304 143.18 484.848 143.003 484.327C142.826 483.806 142.737 483.241 142.737 482.632ZM144.183 482.452V482.632C144.183 483.054 144.232 483.452 144.331 483.827C144.43 484.197 144.578 484.525 144.776 484.812C144.979 485.098 145.232 485.325 145.534 485.491C145.836 485.653 146.188 485.733 146.589 485.733C146.985 485.733 147.331 485.653 147.628 485.491C147.93 485.325 148.18 485.098 148.378 484.812C148.576 484.525 148.724 484.197 148.823 483.827C148.927 483.452 148.979 483.054 148.979 482.632V482.452C148.979 482.035 148.927 481.642 148.823 481.272C148.724 480.897 148.573 480.567 148.37 480.28C148.172 479.989 147.922 479.759 147.62 479.593C147.323 479.426 146.974 479.343 146.573 479.343C146.177 479.343 145.828 479.426 145.526 479.593C145.229 479.759 144.979 479.989 144.776 480.28C144.578 480.567 144.43 480.897 144.331 481.272C144.232 481.642 144.183 482.035 144.183 482.452ZM154.386 485.265L156.558 478.312H157.511L157.323 479.694L155.112 486.765H154.183L154.386 485.265ZM152.925 478.312L154.776 485.343L154.909 486.765H153.933L151.479 478.312H152.925ZM159.589 485.288L161.354 478.312H162.792L160.339 486.765H159.37L159.589 485.288ZM157.722 478.312L159.847 485.147L160.089 486.765H159.167L156.894 479.679L156.706 478.312H157.722Z" fill="white"/>
<path d="M147.003 423.796V427.106H131.637L131.432 424.543L140.323 410.437H143.678L140.045 416.516L135.621 423.796H147.003ZM144.586 410.437V431.765H140.367V410.437H144.586ZM163.644 419.226V422.917C163.644 424.519 163.473 425.9 163.131 427.062C162.789 428.215 162.296 429.162 161.651 429.904C161.017 430.637 160.26 431.179 159.381 431.53C158.502 431.882 157.525 432.058 156.451 432.058C155.592 432.058 154.791 431.95 154.049 431.735C153.307 431.511 152.638 431.164 152.042 430.695C151.456 430.227 150.948 429.636 150.519 428.923C150.099 428.2 149.776 427.341 149.552 426.345C149.327 425.349 149.215 424.206 149.215 422.917V419.226C149.215 417.624 149.386 416.252 149.728 415.109C150.079 413.957 150.572 413.015 151.207 412.282C151.852 411.55 152.613 411.013 153.492 410.671C154.371 410.319 155.348 410.144 156.422 410.144C157.281 410.144 158.077 410.256 158.81 410.48C159.552 410.695 160.221 411.032 160.816 411.491C161.412 411.95 161.92 412.541 162.34 413.264C162.76 413.977 163.082 414.831 163.307 415.827C163.531 416.813 163.644 417.946 163.644 419.226ZM159.41 423.474V418.654C159.41 417.883 159.366 417.209 159.278 416.633C159.2 416.057 159.078 415.568 158.912 415.168C158.746 414.758 158.541 414.426 158.297 414.172C158.053 413.918 157.774 413.732 157.462 413.615C157.149 413.498 156.803 413.439 156.422 413.439C155.943 413.439 155.519 413.532 155.147 413.718C154.786 413.903 154.479 414.201 154.225 414.611C153.971 415.012 153.775 415.549 153.639 416.223C153.512 416.887 153.448 417.697 153.448 418.654V423.474C153.448 424.245 153.487 424.924 153.565 425.51C153.653 426.096 153.78 426.599 153.946 427.019C154.122 427.429 154.327 427.766 154.562 428.029C154.806 428.283 155.084 428.469 155.396 428.586C155.719 428.703 156.07 428.762 156.451 428.762C156.92 428.762 157.335 428.669 157.696 428.483C158.067 428.288 158.38 427.985 158.634 427.575C158.897 427.155 159.093 426.608 159.22 425.935C159.347 425.261 159.41 424.44 159.41 423.474ZM132.003 445.666V444.538C132.003 443.728 132.179 442.99 132.53 442.326C132.882 441.662 133.399 441.13 134.083 440.729C134.767 440.329 135.606 440.129 136.603 440.129C137.628 440.129 138.482 440.329 139.166 440.729C139.859 441.13 140.377 441.662 140.719 442.326C141.07 442.99 141.246 443.728 141.246 444.538V445.666C141.246 446.457 141.07 447.185 140.719 447.849C140.377 448.513 139.864 449.045 139.181 449.445C138.497 449.846 137.652 450.046 136.646 450.046C135.631 450.046 134.776 449.846 134.083 449.445C133.399 449.045 132.882 448.513 132.53 447.849C132.179 447.185 132.003 446.457 132.003 445.666ZM134.801 444.538V445.666C134.801 446.008 134.864 446.335 134.991 446.647C135.128 446.95 135.333 447.199 135.606 447.395C135.89 447.58 136.231 447.673 136.632 447.673C137.052 447.673 137.394 447.58 137.657 447.395C137.921 447.199 138.116 446.95 138.243 446.647C138.37 446.335 138.434 446.008 138.434 445.666V444.538C138.434 444.177 138.365 443.845 138.229 443.542C138.102 443.229 137.901 442.98 137.628 442.795C137.364 442.6 137.022 442.502 136.603 442.502C136.212 442.502 135.88 442.6 135.606 442.795C135.333 442.98 135.128 443.229 134.991 443.542C134.864 443.845 134.801 444.177 134.801 444.538ZM142.198 457.663V456.535C142.198 455.734 142.374 455.002 142.726 454.338C143.087 453.674 143.609 453.142 144.293 452.741C144.986 452.341 145.836 452.141 146.842 452.141C147.857 452.141 148.707 452.341 149.391 452.741C150.074 453.142 150.592 453.674 150.943 454.338C151.295 455.002 151.471 455.734 151.471 456.535V457.663C151.471 458.464 151.295 459.196 150.943 459.86C150.602 460.524 150.089 461.057 149.405 461.457C148.722 461.857 147.877 462.058 146.871 462.058C145.855 462.058 145.001 461.857 144.308 461.457C143.614 461.057 143.087 460.524 142.726 459.86C142.374 459.196 142.198 458.464 142.198 457.663ZM145.011 456.535V457.663C145.011 458.015 145.089 458.347 145.245 458.659C145.401 458.972 145.616 459.221 145.89 459.406C146.173 459.592 146.5 459.685 146.871 459.685C147.34 459.685 147.706 459.592 147.97 459.406C148.233 459.221 148.414 458.972 148.512 458.659C148.619 458.347 148.673 458.015 148.673 457.663V456.535C148.673 456.184 148.604 455.856 148.468 455.554C148.331 455.241 148.126 454.992 147.853 454.807C147.589 454.611 147.252 454.514 146.842 454.514C146.432 454.514 146.09 454.611 145.816 454.807C145.553 454.992 145.353 455.241 145.216 455.554C145.079 455.856 145.011 456.184 145.011 456.535ZM147.882 443.483L137.467 460.153L135.416 459.069L145.831 442.399L147.882 443.483Z" fill="#39CEF3"/>
<path d="M192.959 421.765H254.793L285.558 383.765" stroke="#CDCDCD" stroke-width="2" stroke-dasharray="10 10"/>
<defs>
<filter id="filter0_d_301_7362" x="7.49463" y="36.5084" width="637.393" height="464.411" filterUnits="userSpaceOnUse" color-interpolation-filters="sRGB">
<feFlood flood-opacity="0" result="BackgroundImageFix"/>
<feColorMatrix in="SourceAlpha" type="matrix" values="0 0 0 0 0 0 0 0 0 0 0 0 0 0 0 0 0 0 127 0" result="hardAlpha"/>
<feOffset dy="4"/>
<feGaussianBlur stdDeviation="47.5"/>
<feComposite in2="hardAlpha" operator="out"/>
<feColorMatrix type="matrix" values="0 0 0 0 0 0 0 0 0 0 0 0 0 0 0 0 0 0 0.08 0"/>
<feBlend mode="normal" in2="BackgroundImageFix" result="effect1_dropShadow_301_7362"/>
<feBlend mode="normal" in="SourceGraphic" in2="effect1_dropShadow_301_7362" result="shape"/>
</filter>
<filter id="filter1_d_301_7362" x="124.619" y="88.4595" width="386.069" height="282.364" filterUnits="userSpaceOnUse" color-interpolation-filters="sRGB">
<feFlood flood-opacity="0" result="BackgroundImageFix"/>
<feColorMatrix in="SourceAlpha" type="matrix" values="0 0 0 0 0 0 0 0 0 0 0 0 0 0 0 0 0 0 127 0" result="hardAlpha"/>
<feOffset dy="4"/>
<feGaussianBlur stdDeviation="18.5"/>
<feComposite in2="hardAlpha" operator="out"/>
<feColorMatrix type="matrix" values="0 0 0 0 0.223529 0 0 0 0 0.807843 0 0 0 0 0.952941 0 0 0 1 0"/>
<feBlend mode="normal" in2="BackgroundImageFix" result="effect1_dropShadow_301_7362"/>
<feBlend mode="normal" in="SourceGraphic" in2="effect1_dropShadow_301_7362" result="shape"/>
</filter>
<linearGradient id="paint0_linear_301_7362" x1="182.812" y1="0" x2="182.812" y2="376.486" gradientUnits="userSpaceOnUse">
<stop stop-color="#0D3787"/>
<stop offset="1" stop-color="#0D3787" stop-opacity="0.23"/>
</linearGradient>
<linearGradient id="paint1_linear_301_7362" x1="273.474" y1="117.287" x2="287.631" y2="387.421" gradientUnits="userSpaceOnUse">
<stop stop-color="#1B4F9D"/>
<stop offset="0.491787" stop-color="#0359D9" stop-opacity="0.849792"/>
<stop offset="1" stop-color="#2F82FF"/>
</linearGradient>
<clipPath id="clip0_301_7362">
<rect width="349.952" height="350.054" fill="white" transform="matrix(-0.99863 0.052336 0.707107 0.707107 390.247 117.765)"/>
</clipPath>
<clipPath id="clip1_301_7362">
<rect width="349.952" height="350.054" fill="white" transform="matrix(-0.99863 0.052336 0.707107 0.707107 408.247 96.7646)"/>
</clipPath>
</defs>
</svg>
