<svg width="20" height="10" viewBox="0 0 25 15" fill="none" xmlns="http://www.w3.org/2000/svg">
<path fill-rule="evenodd" clip-rule="evenodd" d="M13.8506 14.4273C13.4985 14.794 13.021 15 12.5231 15C12.0252 15 11.5476 14.794 11.1955 14.4273L0.573247 3.36277C0.393905 3.18234 0.250856 2.96652 0.152446 2.72789C0.0540368 2.48926 0.00223744 2.23261 7.0896e-05 1.9729C-0.00209565 1.7132 0.0454144 1.45565 0.139828 1.21527C0.234242 0.974899 0.373668 0.756517 0.549973 0.572872C0.726277 0.389226 0.935928 0.243994 1.16669 0.145649C1.39746 0.0473045 1.64472 -0.00218291 1.89404 7.38493e-05C2.14336 0.00233061 2.38976 0.0562868 2.61885 0.158794C2.84794 0.261301 3.05513 0.410306 3.22835 0.597115L12.5231 10.2789L21.8178 0.597115C22.1719 0.240831 22.6463 0.0436862 23.1386 0.0481426C23.6309 0.052599 24.1019 0.258299 24.45 0.62094C24.7982 0.983581 24.9957 1.47415 24.9999 1.98698C25.0042 2.49981 24.8149 2.99388 24.4729 3.36277L13.8506 14.4273Z" fill="white"/>
</svg>
