<svg width="101" height="61" viewBox="0 0 101 61" fill="none" xmlns="http://www.w3.org/2000/svg">
<path d="M5.53125 40.3975L1.76562 50.7646H0.226562L4.5625 39.3896H5.55469L5.53125 40.3975ZM8.6875 50.7646L4.91406 40.3975L4.89062 39.3896H5.88281L10.2344 50.7646H8.6875ZM8.49219 46.5537V47.7881H2.10156V46.5537H8.49219ZM13.7188 49.46L16.0312 42.3115H17.5078L14.4688 50.7646H13.5L13.7188 49.46ZM11.7891 42.3115L14.1719 49.499L14.3359 50.7646H13.3672L10.3047 42.3115H11.7891ZM23.7578 49.3193V44.9678C23.7578 44.6344 23.6901 44.3454 23.5547 44.1006C23.4245 43.8506 23.2266 43.6579 22.9609 43.5225C22.6953 43.387 22.3672 43.3193 21.9766 43.3193C21.612 43.3193 21.2917 43.3818 21.0156 43.5068C20.7448 43.6318 20.5312 43.7959 20.375 43.999C20.224 44.2021 20.1484 44.4209 20.1484 44.6553H18.7031C18.7031 44.3532 18.7812 44.0537 18.9375 43.7568C19.0938 43.46 19.3177 43.1917 19.6094 42.9521C19.9062 42.7074 20.2604 42.5146 20.6719 42.374C21.0885 42.2282 21.5521 42.1553 22.0625 42.1553C22.6771 42.1553 23.2188 42.2594 23.6875 42.4678C24.1615 42.6761 24.5312 42.9912 24.7969 43.4131C25.0677 43.8298 25.2031 44.3532 25.2031 44.9834V48.9209C25.2031 49.2021 25.2266 49.5016 25.2734 49.8193C25.3255 50.137 25.401 50.4105 25.5 50.6396V50.7646H23.9922C23.9193 50.598 23.862 50.3766 23.8203 50.1006C23.7786 49.8193 23.7578 49.5589 23.7578 49.3193ZM24.0078 45.6396L24.0234 46.6553H22.5625C22.151 46.6553 21.7839 46.6891 21.4609 46.7568C21.138 46.8193 20.8672 46.9157 20.6484 47.0459C20.4297 47.1761 20.263 47.3402 20.1484 47.5381C20.0339 47.7308 19.9766 47.9574 19.9766 48.2178C19.9766 48.4834 20.0365 48.7256 20.1562 48.9443C20.276 49.1631 20.4557 49.3376 20.6953 49.4678C20.9401 49.5928 21.2396 49.6553 21.5938 49.6553C22.0365 49.6553 22.4271 49.5615 22.7656 49.374C23.1042 49.1865 23.3724 48.9574 23.5703 48.6865C23.7734 48.4157 23.8828 48.1527 23.8984 47.8975L24.5156 48.5928C24.4792 48.8115 24.3802 49.0537 24.2188 49.3193C24.0573 49.585 23.8411 49.8402 23.5703 50.085C23.3047 50.3245 22.987 50.5251 22.6172 50.6865C22.2526 50.8428 21.8411 50.9209 21.3828 50.9209C20.8099 50.9209 20.3073 50.8089 19.875 50.585C19.4479 50.361 19.1146 50.0615 18.875 49.6865C18.6406 49.3063 18.5234 48.8818 18.5234 48.4131C18.5234 47.96 18.612 47.5615 18.7891 47.2178C18.9661 46.8688 19.2214 46.5798 19.5547 46.3506C19.888 46.1162 20.2891 45.9391 20.7578 45.8193C21.2266 45.6995 21.75 45.6396 22.3281 45.6396H24.0078ZM29.0469 42.3115V50.7646H27.5938V42.3115H29.0469ZM27.4844 40.0693C27.4844 39.835 27.5547 39.637 27.6953 39.4756C27.8411 39.3141 28.0547 39.2334 28.3359 39.2334C28.612 39.2334 28.8229 39.3141 28.9688 39.4756C29.1198 39.637 29.1953 39.835 29.1953 40.0693C29.1953 40.2933 29.1198 40.486 28.9688 40.6475C28.8229 40.8037 28.612 40.8818 28.3359 40.8818C28.0547 40.8818 27.8411 40.8037 27.6953 40.6475C27.5547 40.486 27.4844 40.2933 27.4844 40.0693ZM32.9375 38.7646V50.7646H31.4844V38.7646H32.9375ZM40.2422 49.3193V44.9678C40.2422 44.6344 40.1745 44.3454 40.0391 44.1006C39.9089 43.8506 39.7109 43.6579 39.4453 43.5225C39.1797 43.387 38.8516 43.3193 38.4609 43.3193C38.0964 43.3193 37.776 43.3818 37.5 43.5068C37.2292 43.6318 37.0156 43.7959 36.8594 43.999C36.7083 44.2021 36.6328 44.4209 36.6328 44.6553H35.1875C35.1875 44.3532 35.2656 44.0537 35.4219 43.7568C35.5781 43.46 35.8021 43.1917 36.0938 42.9521C36.3906 42.7074 36.7448 42.5146 37.1562 42.374C37.5729 42.2282 38.0365 42.1553 38.5469 42.1553C39.1615 42.1553 39.7031 42.2594 40.1719 42.4678C40.6458 42.6761 41.0156 42.9912 41.2812 43.4131C41.5521 43.8298 41.6875 44.3532 41.6875 44.9834V48.9209C41.6875 49.2021 41.7109 49.5016 41.7578 49.8193C41.8099 50.137 41.8854 50.4105 41.9844 50.6396V50.7646H40.4766C40.4036 50.598 40.3464 50.3766 40.3047 50.1006C40.263 49.8193 40.2422 49.5589 40.2422 49.3193ZM40.4922 45.6396L40.5078 46.6553H39.0469C38.6354 46.6553 38.2682 46.6891 37.9453 46.7568C37.6224 46.8193 37.3516 46.9157 37.1328 47.0459C36.9141 47.1761 36.7474 47.3402 36.6328 47.5381C36.5182 47.7308 36.4609 47.9574 36.4609 48.2178C36.4609 48.4834 36.5208 48.7256 36.6406 48.9443C36.7604 49.1631 36.9401 49.3376 37.1797 49.4678C37.4245 49.5928 37.724 49.6553 38.0781 49.6553C38.5208 49.6553 38.9115 49.5615 39.25 49.374C39.5885 49.1865 39.8568 48.9574 40.0547 48.6865C40.2578 48.4157 40.3672 48.1527 40.3828 47.8975L41 48.5928C40.9635 48.8115 40.8646 49.0537 40.7031 49.3193C40.5417 49.585 40.3255 49.8402 40.0547 50.085C39.7891 50.3245 39.4714 50.5251 39.1016 50.6865C38.737 50.8428 38.3255 50.9209 37.8672 50.9209C37.2943 50.9209 36.7917 50.8089 36.3594 50.585C35.9323 50.361 35.599 50.0615 35.3594 49.6865C35.125 49.3063 35.0078 48.8818 35.0078 48.4131C35.0078 47.96 35.0964 47.5615 35.2734 47.2178C35.4505 46.8688 35.7057 46.5798 36.0391 46.3506C36.3724 46.1162 36.7734 45.9391 37.2422 45.8193C37.7109 45.6995 38.2344 45.6396 38.8125 45.6396H40.4922ZM43.9531 38.7646H45.4062V49.124L45.2812 50.7646H43.9531V38.7646ZM51.1172 46.4678V46.6318C51.1172 47.2464 51.0443 47.8167 50.8984 48.3428C50.7526 48.8636 50.5391 49.3167 50.2578 49.7021C49.9766 50.0876 49.6328 50.387 49.2266 50.6006C48.8203 50.8141 48.3542 50.9209 47.8281 50.9209C47.2917 50.9209 46.8203 50.8298 46.4141 50.6475C46.013 50.46 45.6745 50.1917 45.3984 49.8428C45.1224 49.4938 44.901 49.0719 44.7344 48.5771C44.5729 48.0824 44.4609 47.5251 44.3984 46.9053V46.1865C44.4609 45.5615 44.5729 45.0016 44.7344 44.5068C44.901 44.012 45.1224 43.5902 45.3984 43.2412C45.6745 42.887 46.013 42.6188 46.4141 42.4365C46.8151 42.249 47.2812 42.1553 47.8125 42.1553C48.3438 42.1553 48.8151 42.2594 49.2266 42.4678C49.638 42.6709 49.9818 42.9626 50.2578 43.3428C50.5391 43.723 50.7526 44.1787 50.8984 44.71C51.0443 45.236 51.1172 45.8219 51.1172 46.4678ZM49.6641 46.6318V46.4678C49.6641 46.0459 49.625 45.6501 49.5469 45.2803C49.4688 44.9053 49.3438 44.5771 49.1719 44.2959C49 44.0094 48.7734 43.7855 48.4922 43.624C48.2109 43.4574 47.8646 43.374 47.4531 43.374C47.0885 43.374 46.7708 43.4365 46.5 43.5615C46.2344 43.6865 46.0078 43.8558 45.8203 44.0693C45.6328 44.2777 45.4792 44.5173 45.3594 44.7881C45.2448 45.0537 45.1589 45.3298 45.1016 45.6162V47.499C45.1849 47.8636 45.3203 48.2152 45.5078 48.5537C45.7005 48.887 45.9557 49.1605 46.2734 49.374C46.5964 49.5876 46.9948 49.6943 47.4688 49.6943C47.8594 49.6943 48.1927 49.6162 48.4688 49.46C48.75 49.2985 48.9766 49.0771 49.1484 48.7959C49.3255 48.5146 49.4557 48.1891 49.5391 47.8193C49.6224 47.4495 49.6641 47.0537 49.6641 46.6318ZM54.5156 38.7646V50.7646H53.0625V38.7646H54.5156ZM60.3438 50.9209C59.7552 50.9209 59.2214 50.8219 58.7422 50.624C58.2682 50.4209 57.8594 50.137 57.5156 49.7725C57.1771 49.4079 56.9167 48.9756 56.7344 48.4756C56.5521 47.9756 56.4609 47.4287 56.4609 46.835V46.5068C56.4609 45.8193 56.5625 45.2074 56.7656 44.6709C56.9688 44.1292 57.2448 43.6709 57.5938 43.2959C57.9427 42.9209 58.3385 42.637 58.7812 42.4443C59.224 42.2516 59.6823 42.1553 60.1562 42.1553C60.7604 42.1553 61.2812 42.2594 61.7188 42.4678C62.1615 42.6761 62.5234 42.9678 62.8047 43.3428C63.0859 43.7126 63.2943 44.1501 63.4297 44.6553C63.5651 45.1553 63.6328 45.7021 63.6328 46.2959V46.9443H57.3203V45.7646H62.1875V45.6553C62.1667 45.2803 62.0885 44.9157 61.9531 44.5615C61.8229 44.2074 61.6146 43.9157 61.3281 43.6865C61.0417 43.4574 60.651 43.3428 60.1562 43.3428C59.8281 43.3428 59.526 43.4131 59.25 43.5537C58.974 43.6891 58.737 43.8923 58.5391 44.1631C58.3411 44.4339 58.1875 44.7646 58.0781 45.1553C57.9688 45.5459 57.9141 45.9964 57.9141 46.5068V46.835C57.9141 47.236 57.9688 47.6136 58.0781 47.9678C58.1927 48.3167 58.3568 48.624 58.5703 48.8896C58.7891 49.1553 59.0521 49.3636 59.3594 49.5146C59.6719 49.6657 60.026 49.7412 60.4219 49.7412C60.9323 49.7412 61.3646 49.637 61.7188 49.4287C62.0729 49.2204 62.3828 48.9417 62.6484 48.5928L63.5234 49.2881C63.3411 49.5641 63.1094 49.8271 62.8281 50.0771C62.5469 50.3271 62.2005 50.5303 61.7891 50.6865C61.3828 50.8428 60.901 50.9209 60.3438 50.9209ZM78.2578 39.3896V50.7646H76.7422L71.0156 41.9912V50.7646H69.5078V39.3896H71.0156L76.7656 48.1865V39.3896H78.2578ZM80.3281 46.6318V46.4521C80.3281 45.8428 80.4167 45.2777 80.5938 44.7568C80.7708 44.2308 81.026 43.7751 81.3594 43.3896C81.6927 42.999 82.0964 42.6969 82.5703 42.4834C83.0443 42.2646 83.5755 42.1553 84.1641 42.1553C84.7578 42.1553 85.2917 42.2646 85.7656 42.4834C86.2448 42.6969 86.651 42.999 86.9844 43.3896C87.3229 43.7751 87.5807 44.2308 87.7578 44.7568C87.9349 45.2777 88.0234 45.8428 88.0234 46.4521V46.6318C88.0234 47.2412 87.9349 47.8063 87.7578 48.3271C87.5807 48.848 87.3229 49.3037 86.9844 49.6943C86.651 50.0798 86.2474 50.3818 85.7734 50.6006C85.3047 50.8141 84.7734 50.9209 84.1797 50.9209C83.5859 50.9209 83.0521 50.8141 82.5781 50.6006C82.1042 50.3818 81.6979 50.0798 81.3594 49.6943C81.026 49.3037 80.7708 48.848 80.5938 48.3271C80.4167 47.8063 80.3281 47.2412 80.3281 46.6318ZM81.7734 46.4521V46.6318C81.7734 47.0537 81.8229 47.4521 81.9219 47.8271C82.0208 48.1969 82.1693 48.5251 82.3672 48.8115C82.5703 49.098 82.8229 49.3245 83.125 49.4912C83.4271 49.6527 83.7786 49.7334 84.1797 49.7334C84.5755 49.7334 84.9219 49.6527 85.2188 49.4912C85.5208 49.3245 85.7708 49.098 85.9688 48.8115C86.1667 48.5251 86.3151 48.1969 86.4141 47.8271C86.5182 47.4521 86.5703 47.0537 86.5703 46.6318V46.4521C86.5703 46.0355 86.5182 45.6423 86.4141 45.2725C86.3151 44.8975 86.1641 44.5667 85.9609 44.2803C85.763 43.9886 85.513 43.7594 85.2109 43.5928C84.9141 43.4261 84.5651 43.3428 84.1641 43.3428C83.7682 43.3428 83.4193 43.4261 83.1172 43.5928C82.8203 43.7594 82.5703 43.9886 82.3672 44.2803C82.1693 44.5667 82.0208 44.8975 81.9219 45.2725C81.8229 45.6423 81.7734 46.0355 81.7734 46.4521ZM91.9766 49.2646L94.1484 42.3115H95.1016L94.9141 43.6943L92.7031 50.7646H91.7734L91.9766 49.2646ZM90.5156 42.3115L92.3672 49.3428L92.5 50.7646H91.5234L89.0703 42.3115H90.5156ZM97.1797 49.2881L98.9453 42.3115H100.383L97.9297 50.7646H96.9609L97.1797 49.2881ZM95.3125 42.3115L97.4375 49.1475L97.6797 50.7646H96.7578L94.4844 43.6787L94.2969 42.3115H95.3125Z" fill="white"/>
<path d="M16.4062 17.7959V21.1064H1.04004L0.834961 18.543L9.72656 4.43652H13.0811L9.44824 10.5156L5.02441 17.7959H16.4062ZM13.9893 4.43652V25.7646H9.77051V4.43652H13.9893ZM33.0469 13.2256V16.917C33.0469 18.5186 32.876 19.9004 32.5342 21.0625C32.1924 22.2148 31.6992 23.1621 31.0547 23.9043C30.4199 24.6367 29.6631 25.1787 28.7842 25.5303C27.9053 25.8818 26.9287 26.0576 25.8545 26.0576C24.9951 26.0576 24.1943 25.9502 23.4521 25.7354C22.71 25.5107 22.041 25.1641 21.4453 24.6953C20.8594 24.2266 20.3516 23.6357 19.9219 22.9229C19.502 22.2002 19.1797 21.3408 18.9551 20.3447C18.7305 19.3486 18.6182 18.2061 18.6182 16.917V13.2256C18.6182 11.624 18.7891 10.252 19.1309 9.10938C19.4824 7.95703 19.9756 7.01465 20.6104 6.28223C21.2549 5.5498 22.0166 5.0127 22.8955 4.6709C23.7744 4.31934 24.751 4.14355 25.8252 4.14355C26.6846 4.14355 27.4805 4.25586 28.2129 4.48047C28.9551 4.69531 29.624 5.03223 30.2197 5.49121C30.8154 5.9502 31.3232 6.54102 31.7432 7.26367C32.1631 7.97656 32.4854 8.83105 32.71 9.82715C32.9346 10.8135 33.0469 11.9463 33.0469 13.2256ZM28.8135 17.4736V12.6543C28.8135 11.8828 28.7695 11.209 28.6816 10.6328C28.6035 10.0566 28.4814 9.56836 28.3154 9.16797C28.1494 8.75781 27.9443 8.42578 27.7002 8.17188C27.4561 7.91797 27.1777 7.73242 26.8652 7.61523C26.5527 7.49805 26.2061 7.43945 25.8252 7.43945C25.3467 7.43945 24.9219 7.53223 24.5508 7.71777C24.1895 7.90332 23.8818 8.20117 23.6279 8.61133C23.374 9.01172 23.1787 9.54883 23.042 10.2227C22.915 10.8867 22.8516 11.6973 22.8516 12.6543V17.4736C22.8516 18.2451 22.8906 18.9238 22.9688 19.5098C23.0566 20.0957 23.1836 20.5986 23.3496 21.0186C23.5254 21.4287 23.7305 21.7656 23.9648 22.0293C24.209 22.2832 24.4873 22.4688 24.7998 22.5859C25.1221 22.7031 25.4736 22.7617 25.8545 22.7617C26.3232 22.7617 26.7383 22.6689 27.0996 22.4834C27.4707 22.2881 27.7832 21.9854 28.0371 21.5752C28.3008 21.1553 28.4961 20.6084 28.623 19.9346C28.75 19.2607 28.8135 18.4404 28.8135 17.4736ZM35.8594 9.66602V8.53809C35.8594 7.72754 36.0352 6.99023 36.3867 6.32617C36.7383 5.66211 37.2559 5.12988 37.9395 4.72949C38.623 4.3291 39.4629 4.12891 40.459 4.12891C41.4844 4.12891 42.3389 4.3291 43.0225 4.72949C43.7158 5.12988 44.2334 5.66211 44.5752 6.32617C44.9268 6.99023 45.1025 7.72754 45.1025 8.53809V9.66602C45.1025 10.457 44.9268 11.1846 44.5752 11.8486C44.2334 12.5127 43.7207 13.0449 43.0371 13.4453C42.3535 13.8457 41.5088 14.0459 40.5029 14.0459C39.4873 14.0459 38.6328 13.8457 37.9395 13.4453C37.2559 13.0449 36.7383 12.5127 36.3867 11.8486C36.0352 11.1846 35.8594 10.457 35.8594 9.66602ZM38.6572 8.53809V9.66602C38.6572 10.0078 38.7207 10.335 38.8477 10.6475C38.9844 10.9502 39.1895 11.1992 39.4629 11.3945C39.7461 11.5801 40.0879 11.6729 40.4883 11.6729C40.9082 11.6729 41.25 11.5801 41.5137 11.3945C41.7773 11.1992 41.9727 10.9502 42.0996 10.6475C42.2266 10.335 42.29 10.0078 42.29 9.66602V8.53809C42.29 8.17676 42.2217 7.84473 42.085 7.54199C41.958 7.22949 41.7578 6.98047 41.4844 6.79492C41.2207 6.59961 40.8789 6.50195 40.459 6.50195C40.0684 6.50195 39.7363 6.59961 39.4629 6.79492C39.1895 6.98047 38.9844 7.22949 38.8477 7.54199C38.7207 7.84473 38.6572 8.17676 38.6572 8.53809ZM46.0547 21.6631V20.5352C46.0547 19.7344 46.2305 19.002 46.582 18.3379C46.9434 17.6738 47.4658 17.1416 48.1494 16.7412C48.8428 16.3408 49.6924 16.1406 50.6982 16.1406C51.7139 16.1406 52.5635 16.3408 53.2471 16.7412C53.9307 17.1416 54.4482 17.6738 54.7998 18.3379C55.1514 19.002 55.3271 19.7344 55.3271 20.5352V21.6631C55.3271 22.4639 55.1514 23.1963 54.7998 23.8604C54.458 24.5244 53.9453 25.0566 53.2617 25.457C52.5781 25.8574 51.7334 26.0576 50.7275 26.0576C49.7119 26.0576 48.8574 25.8574 48.1641 25.457C47.4707 25.0566 46.9434 24.5244 46.582 23.8604C46.2305 23.1963 46.0547 22.4639 46.0547 21.6631ZM48.8672 20.5352V21.6631C48.8672 22.0146 48.9453 22.3467 49.1016 22.6592C49.2578 22.9717 49.4727 23.2207 49.7461 23.4062C50.0293 23.5918 50.3564 23.6846 50.7275 23.6846C51.1963 23.6846 51.5625 23.5918 51.8262 23.4062C52.0898 23.2207 52.2705 22.9717 52.3682 22.6592C52.4756 22.3467 52.5293 22.0146 52.5293 21.6631V20.5352C52.5293 20.1836 52.4609 19.8564 52.3242 19.5537C52.1875 19.2412 51.9824 18.9922 51.709 18.8066C51.4453 18.6113 51.1084 18.5137 50.6982 18.5137C50.2881 18.5137 49.9463 18.6113 49.6729 18.8066C49.4092 18.9922 49.209 19.2412 49.0723 19.5537C48.9355 19.8564 48.8672 20.1836 48.8672 20.5352ZM51.7383 7.4834L41.3232 24.1533L39.2725 23.0693L49.6875 6.39941L51.7383 7.4834Z" fill="#39CEF3"/>
</svg>
