<svg width="714" height="488" viewBox="0 0 714 488" fill="none" xmlns="http://www.w3.org/2000/svg">
<g filter="url(#filter0_d_107_7957)">
<ellipse cx="193.443" cy="193.5" rx="193.443" ry="193.5" transform="matrix(-0.99863 0.052336 0.707107 0.707107 395.356 104.765)" fill="url(#paint0_linear_107_7957)" shape-rendering="crispEdges"/>
</g>
<path d="M532.499 308.704C540.039 316.526 555.349 322.633 565.671 321.389C586.154 318.921 603.393 313.693 616.497 305.92C633.578 295.788 643.149 281.619 644.428 264.571C645.706 247.523 638.656 228.081 623.854 207.834C609.051 187.587 586.917 167.11 559.261 148.077C531.604 129.045 499.21 111.997 464.728 98.327C430.246 84.6574 394.655 74.7544 360.864 69.4278C327.073 64.1011 296.042 63.502 270.308 67.6795C250.564 70.8846 234.368 76.8318 222.448 85.1947C216.444 89.4076 223.087 98.4072 235.777 104.507L282.656 127.041C295.351 133.143 309.216 133.959 316.262 130.34C322.135 127.324 329.312 125.103 337.619 123.754C351.928 121.431 369.182 121.765 387.97 124.726C406.759 127.688 426.548 133.194 445.721 140.795C464.894 148.396 482.906 157.875 498.283 168.457C513.661 179.04 525.968 190.426 534.199 201.683C542.429 212.941 546.349 223.751 545.638 233.23C544.927 242.709 539.605 250.588 530.108 256.221C524.593 259.493 517.762 261.953 509.828 263.551C500.31 265.468 497.106 271.986 504.646 279.808L532.499 308.704Z" fill="#2F82FF" fill-opacity="0.6"/>
<path d="M522.499 327.704C530.039 335.526 545.349 341.633 555.671 340.389C576.154 337.921 593.393 332.693 606.497 324.92C623.578 314.788 633.149 300.619 634.428 283.571C635.706 266.523 628.656 247.081 613.854 226.834C599.051 206.587 576.917 186.11 549.261 167.077C521.604 148.045 489.21 130.997 454.728 117.327C420.246 103.657 384.655 93.7544 350.864 88.4278C317.073 83.1011 286.042 82.502 260.308 86.6795C240.564 89.8846 224.368 95.8318 212.448 104.195C206.444 108.408 213.087 117.407 225.777 123.507L272.656 146.041C285.351 152.143 299.216 152.959 306.262 149.34C312.135 146.324 319.312 144.103 327.619 142.754C341.928 140.431 359.182 140.765 377.97 143.726C396.759 146.688 416.548 152.194 435.721 159.795C454.894 167.396 472.906 176.875 488.283 187.457C503.661 198.04 515.968 209.426 524.199 220.683C532.429 231.941 536.349 242.751 535.638 252.23C534.927 261.709 529.605 269.588 520.108 275.221C514.593 278.493 507.762 280.953 499.828 282.551C490.31 284.468 487.106 290.986 494.646 298.808L522.499 327.704Z" fill="#2F82FF" fill-opacity="0.3"/>
<path d="M512.499 347.704C520.039 355.526 535.349 361.633 545.671 360.389C566.154 357.921 583.393 352.693 596.497 344.92C613.578 334.788 623.149 320.619 624.428 303.571C625.706 286.523 618.656 267.081 603.854 246.834C589.051 226.587 566.917 206.11 539.261 187.077C511.604 168.045 479.21 150.997 444.728 137.327C410.246 123.657 374.655 113.754 340.864 108.428C307.073 103.101 276.042 102.502 250.308 106.679C230.564 109.885 214.368 115.832 202.448 124.195C196.444 128.408 203.087 137.407 215.777 143.507L262.656 166.041C275.351 172.143 289.216 172.959 296.262 169.34C302.135 166.324 309.312 164.103 317.619 162.754C331.928 160.431 349.182 160.765 367.97 163.726C386.759 166.688 406.548 172.194 425.721 179.795C444.894 187.396 462.906 196.875 478.283 207.457C493.661 218.04 505.968 229.426 514.199 240.683C522.429 251.941 526.349 262.751 525.638 272.23C524.927 281.709 519.605 289.588 510.108 295.221C504.593 298.493 497.762 300.953 489.828 302.551C480.31 304.468 477.106 310.986 484.646 318.808L512.499 347.704Z" fill="url(#paint1_linear_107_7957)" fill-opacity="0.1"/>
<path d="M549.499 290.704C557.038 298.526 572.349 304.633 582.671 303.389C603.154 300.921 620.393 295.693 633.497 287.92C650.578 277.788 660.149 263.619 661.427 246.571C662.706 229.523 655.656 210.081 640.854 189.834C626.051 169.587 603.917 149.11 576.26 130.077C548.604 111.045 516.21 93.9965 481.728 80.327C447.246 66.6574 411.655 56.7544 377.864 51.4278C344.073 46.1011 313.042 45.502 287.308 49.6795C267.564 52.8846 251.368 58.8318 239.448 67.1947C233.443 71.4076 240.087 80.4072 252.777 86.5071L299.656 109.041C312.351 115.143 326.215 115.959 333.262 112.34C339.134 109.324 346.312 107.103 354.619 105.754C368.928 103.431 386.182 103.765 404.97 106.726C423.759 109.688 443.548 115.194 462.721 122.795C481.894 130.396 499.905 139.875 515.283 150.457C530.661 161.04 542.968 172.426 551.198 183.683C559.429 194.941 563.349 205.751 562.638 215.23C561.927 224.709 556.605 232.588 547.108 238.221C541.593 241.493 534.762 243.953 526.828 245.551C517.31 247.468 514.106 253.986 521.646 261.808L549.499 290.704Z" fill="#2F82FF"/>
<g clip-path="url(#clip0_107_7957)">
<path d="M157.69 157.022C144.734 151.234 130.955 150.772 128.609 156.678C122.643 171.697 124.919 189.712 135.407 209.224C148.377 233.354 173.307 258.659 206.963 281.857C240.62 305.055 281.448 325.075 324.151 339.319C358.684 350.837 393.154 358.149 424.636 360.717C437.017 361.727 440.925 355.388 434.12 347.557L411.02 320.975C404.215 313.144 389.262 306.849 376.439 305.133C361.793 303.174 346.259 299.52 330.702 294.331C306.959 286.411 284.257 275.28 265.543 262.381C246.83 249.482 232.968 235.412 225.756 221.995C221.03 213.204 219.304 204.958 220.584 197.703C221.704 191.354 214.604 182.451 201.653 176.665L157.69 157.022Z" fill="#39CEF3" fill-opacity="0.1"/>
</g>
<g clip-path="url(#clip1_107_7957)">
<path d="M175.69 136.022C162.734 130.234 148.955 129.772 146.609 135.678C140.643 150.697 142.919 168.712 153.407 188.224C166.377 212.354 191.307 237.659 224.963 260.857C258.62 284.055 299.448 304.075 342.151 318.319C376.684 329.837 411.154 337.149 442.636 339.717C455.017 340.727 458.925 334.388 452.12 326.557L429.02 299.975C422.215 292.144 407.262 285.849 394.439 284.133C379.793 282.174 364.259 278.52 348.702 273.331C324.959 265.411 302.257 254.28 283.543 241.381C264.83 228.482 250.968 214.412 243.756 200.995C239.03 192.204 237.304 183.958 238.584 176.703C239.704 170.354 232.604 161.451 219.653 155.665L175.69 136.022Z" fill="#39CEF3" fill-opacity="0.4"/>
</g>
<g filter="url(#filter1_d_107_7957)">
<path d="M193.69 113.022C180.734 107.234 166.955 106.772 164.609 112.678C158.643 127.697 160.919 145.712 171.407 165.224C184.377 189.354 209.307 214.659 242.963 237.857C276.62 261.055 317.448 281.075 360.151 295.319C394.684 306.837 429.154 314.149 460.636 316.717C473.017 317.727 476.925 311.388 470.12 303.557L447.02 276.975C440.215 269.144 425.262 262.849 412.439 261.133C397.793 259.174 382.259 255.52 366.702 250.331C342.959 242.411 320.257 231.28 301.543 218.381C282.83 205.482 268.968 191.412 261.756 177.995C257.03 169.204 255.304 160.958 256.584 153.703C257.704 147.354 250.604 138.451 237.653 132.665L193.69 113.022Z" fill="#39CEF3"/>
</g>
<path d="M514 1.76465H457.569L434 44.7646" stroke="#CDCDCD" stroke-width="2" stroke-dasharray="10 10"/>
<defs>
<filter id="filter0_d_107_7957" x="7.25879" y="23.5084" width="663.489" height="464.411" filterUnits="userSpaceOnUse" color-interpolation-filters="sRGB">
<feFlood flood-opacity="0" result="BackgroundImageFix"/>
<feColorMatrix in="SourceAlpha" type="matrix" values="0 0 0 0 0 0 0 0 0 0 0 0 0 0 0 0 0 0 127 0" result="hardAlpha"/>
<feOffset dy="4"/>
<feGaussianBlur stdDeviation="47.5"/>
<feComposite in2="hardAlpha" operator="out"/>
<feColorMatrix type="matrix" values="0 0 0 0 0 0 0 0 0 0 0 0 0 0 0 0 0 0 0.08 0"/>
<feBlend mode="normal" in2="BackgroundImageFix" result="effect1_dropShadow_107_7957"/>
<feBlend mode="normal" in="SourceGraphic" in2="effect1_dropShadow_107_7957" result="shape"/>
</filter>
<filter id="filter1_d_107_7957" x="124.369" y="75.4595" width="386.069" height="282.364" filterUnits="userSpaceOnUse" color-interpolation-filters="sRGB">
<feFlood flood-opacity="0" result="BackgroundImageFix"/>
<feColorMatrix in="SourceAlpha" type="matrix" values="0 0 0 0 0 0 0 0 0 0 0 0 0 0 0 0 0 0 127 0" result="hardAlpha"/>
<feOffset dy="4"/>
<feGaussianBlur stdDeviation="18.5"/>
<feComposite in2="hardAlpha" operator="out"/>
<feColorMatrix type="matrix" values="0 0 0 0 0.223529 0 0 0 0 0.807843 0 0 0 0 0.952941 0 0 0 1 0"/>
<feBlend mode="normal" in2="BackgroundImageFix" result="effect1_dropShadow_107_7957"/>
<feBlend mode="normal" in="SourceGraphic" in2="effect1_dropShadow_107_7957" result="shape"/>
</filter>
<linearGradient id="paint0_linear_107_7957" x1="193.443" y1="0" x2="193.443" y2="387" gradientUnits="userSpaceOnUse">
<stop stop-color="#0D3787"/>
<stop offset="1" stop-color="#0D3787" stop-opacity="0.23"/>
</linearGradient>
<linearGradient id="paint1_linear_107_7957" x1="273.224" y1="104.287" x2="287.381" y2="374.421" gradientUnits="userSpaceOnUse">
<stop stop-color="#1B4F9D"/>
<stop offset="0.491787" stop-color="#0359D9" stop-opacity="0.849792"/>
<stop offset="1" stop-color="#2F82FF"/>
</linearGradient>
<clipPath id="clip0_107_7957">
<rect width="349.952" height="350.054" fill="white" transform="matrix(-0.99863 0.052336 0.707107 0.707107 389.997 104.765)"/>
</clipPath>
<clipPath id="clip1_107_7957">
<rect width="349.952" height="350.054" fill="white" transform="matrix(-0.99863 0.052336 0.707107 0.707107 407.997 83.7646)"/>
</clipPath>
</defs>
</svg>
