<svg width="25" height="16" viewBox="0 0 25 16" fill="none" xmlns="http://www.w3.org/2000/svg">
<path fill-rule="evenodd" clip-rule="evenodd" d="M13.8506 1.10196C13.4985 0.735284 13.021 0.529297 12.5231 0.529297C12.0252 0.529297 11.5476 0.735284 11.1955 1.10196L0.573247 12.1665C0.393905 12.347 0.250856 12.5628 0.152446 12.8014C0.0540368 13.04 0.00223744 13.2967 7.0896e-05 13.5564C-0.00209565 13.8161 0.0454144 14.0737 0.139828 14.314C0.234242 14.5544 0.373668 14.7728 0.549973 14.9564C0.726277 15.1401 0.935928 15.2853 1.16669 15.3836C1.39746 15.482 1.64472 15.5315 1.89404 15.5292C2.14336 15.527 2.38976 15.473 2.61885 15.3705C2.84794 15.268 3.05513 15.119 3.22835 14.9322L12.5231 5.25044L21.8178 14.9322C22.1719 15.2885 22.6463 15.4856 23.1386 15.4812C23.6309 15.4767 24.1019 15.271 24.45 14.9084C24.7982 14.5457 24.9957 14.0551 24.9999 13.5423C25.0042 13.0295 24.8149 12.5354 24.4729 12.1665L13.8506 1.10196Z" fill="white"/>
</svg>
